<!-- Generated by IcoMoon.io -->
<svg version="1.1" xmlns="http://www.w3.org/2000/svg" width="32" height="32" viewBox="0 0 32 32">
<title>banknote</title>
<path d="M5.673 26.293c-3.12-3.079-5.673-5.9-5.673-6.27 0-1.205 1.969-4.568 3.671-6.27 0.915-0.915 3.971-3.081 6.79-4.814 4.047-2.487 5.429-3.639 6.565-5.474 1.805-2.915 2.371-3.574 3.069-3.574 0.759 0 11.328 10.467 11.676 11.563 0.372 1.171-1.376 4.509-3.441 6.574-0.915 0.915-3.95 3.069-6.744 4.786-4.768 2.93-7.586 5.688-7.586 7.425 0 0.577-1.493 1.652-2.294 1.652-0.198 0-2.913-2.519-6.033-5.597zM12.978 27.934c1.14-2.235 3.838-4.542 8.522-7.286 3.843-2.252 7.201-5.329 8.049-7.375 0.599-1.446 0.532-1.545-4.423-6.499l-5.031-5.031-1.036 2.031c-1.176 2.305-3.836 4.592-8.56 7.36-3.841 2.25-7.201 5.329-8.047 7.371-0.596 1.439-0.523 1.547 4.336 6.425 2.718 2.729 4.998 4.961 5.067 4.961s0.573-0.881 1.123-1.957zM11 26.414c0-0.816 3.922-4.768 4.329-4.362 0.167 0.167-0.738 1.361-2.012 2.653s-2.316 2.061-2.316 1.708zM15.339 19.563c-0.75-0.75-0.267-1.262 0.911-0.967 0.86 0.216 1.25 0.108 1.25-0.346 0-1.223-1.083-1.783-2.884-1.491-2.365 0.384-3.228-0.699-2.486-3.118 0.391-1.273 0.881-1.783 1.934-2.015 1.508-0.331 2.435-0.007 2.435 0.852 0 0.291-0.45 0.411-0.999 0.267s-1.11-0.083-1.245 0.135c-0.455 0.736 1.345 1.726 2.925 1.609 2.447-0.181 3.001 0.446 2.622 2.97-0.316 2.102-0.396 2.185-2.226 2.311-1.044 0.072-2.051-0.022-2.237-0.208zM18.777 16.434c-0.388-0.627-1.777-0.739-1.777-0.144 0 0.22 0.27 0.67 0.6 1 0.699 0.699 1.692-0.023 1.177-0.856zM14.5 14.64c-0.342-0.412-0.82-0.75-1.061-0.75s-0.439 0.338-0.439 0.75c0 0.431 0.451 0.75 1.061 0.75 0.887 0 0.959-0.123 0.439-0.75zM16.5 9.737c0-0.084 1.012-1.241 2.25-2.569s2.25-2.093 2.25-1.698c0 0.716-3.474 4.421-4.146 4.421-0.195 0-0.354-0.069-0.354-0.153z"></path>
</svg>
