<!-- Generated by IcoMoon.io -->
<svg version="1.1" xmlns="http://www.w3.org/2000/svg" width="32" height="32" viewBox="0 0 32 32">
<title>bubble</title>
<path d="M5.413 29.468c-0.145-0.235 0.18-1.299 0.723-2.365 1.242-2.437 1.251-3.582 0.030-3.969-2.497-0.792-6.064-6.264-6.064-9.301 0-3.512 3.076-7.789 7.051-9.803 7.345-3.722 17.212-2.298 22.181 3.203 1.65 1.826 2.882 4.648 2.882 6.6 0 3.492-3.077 7.792-6.99 9.769-2.735 1.382-7.352 2.407-9.984 2.217-1.406-0.102-2.351 0.2-3.629 1.158-1.925 1.442-4.677 2.92-5.439 2.92-0.274 0-0.616-0.192-0.762-0.428zM16.417 23.823c5.619-0.363 9.573-2.055 12.018-5.143 1.306-1.649 1.528-2.353 1.528-4.848s-0.222-3.199-1.528-4.848c-0.864-1.091-2.826-2.583-4.518-3.435-2.696-1.358-3.459-1.506-7.759-1.506s-5.063 0.148-7.759 1.506c-3.856 1.942-5.869 4.442-6.148 7.635-0.276 3.157 0.912 5.323 4.337 7.906 2.58 1.946 2.629 2.031 2.313 4.008l-0.323 2.020 1.561-1.496c1.44-1.38 1.927-1.519 6.275-1.8zM5.33 12.955c0.678-2.897 6.055-6.149 10.167-6.149 2.16 0 1.184 0.862-1.312 1.157-4.296 0.509-8.066 3.070-8.066 5.48 0 0.491-0.25 0.892-0.556 0.892-0.351 0-0.437-0.51-0.233-1.38z"></path>
</svg>
