<!-- Generated by IcoMoon.io -->
<svg version="1.1" xmlns="http://www.w3.org/2000/svg" width="22" height="32" viewBox="0 0 22 32">
<title>bulb</title>
<path d="M8.871 31.251c-0.658-0.461-1.596-2.338-2.435-4.875-0.751-2.269-2.331-5.967-3.512-8.217-2.712-5.168-3.081-7.047-2.034-10.369 1.349-4.281 6.001-7.79 10.328-7.79s8.979 3.509 10.328 7.79c1.051 3.333 0.678 5.208-2.069 10.417-1.201 2.277-2.686 5.795-3.301 7.819s-1.634 4.196-2.265 4.827c-1.324 1.324-3.476 1.494-5.040 0.398zM13.105 28.985c0.115-0.608-0.268-0.725-1.871-0.572-1.951 0.186-2.402 0.534-1.658 1.278 0.639 0.639 3.379 0.092 3.529-0.705zM13.594 27.225c0.344-0.106 0.625-0.64 0.625-1.185 0-0.9-0.243-0.965-2.625-0.701-2.965 0.329-3.538 0.656-3.108 1.776 0.228 0.594 0.801 0.724 2.391 0.542 1.15-0.131 2.373-0.326 2.716-0.432zM12.186 24.5c0.738 0 1.779-0.33 2.313-0.734 0.879-0.665 0.587-0.736-3.108-0.75-3.898-0.015-4.066 0.030-3.804 1.032 0.226 0.863 0.537 0.996 1.766 0.75 0.82-0.164 2.095-0.298 2.833-0.298zM18.173 16.782c1.946-3.768 2.153-4.49 1.934-6.77-0.43-4.477-4.352-8.012-8.888-8.012s-8.458 3.535-8.888 8.012c-0.219 2.279-0.013 3.001 1.934 6.77l2.179 4.218h9.551zM5.219 10.725c0-1.443 1.541-3.765 3.149-4.745 1.727-1.053 3.351-1.286 3.351-0.48 0 0.275-0.539 0.5-1.197 0.5-1.663 0-4.303 2.578-4.303 4.201 0 0.715-0.225 1.299-0.5 1.299s-0.5-0.349-0.5-0.775z"></path>
</svg>
