<!-- Generated by IcoMoon.io -->
<svg version="1.1" xmlns="http://www.w3.org/2000/svg" width="32" height="32" viewBox="0 0 32 32">
<title>calendar</title>
<path d="M1.109 30.89c-0.947-0.947-1-1.667-1-13.5s0.053-12.553 1-13.5c0.73-0.73 1.667-1 3.467-1 2.319 0 2.476-0.082 2.625-1.375 0.21-1.827 1.606-1.827 1.816 0 0.153 1.326 0.263 1.375 3.092 1.375s2.939-0.049 3.092-1.375c0.094-0.819 0.462-1.375 0.908-1.375s0.814 0.556 0.908 1.375c0.153 1.326 0.263 1.375 3.092 1.375s2.939-0.049 3.092-1.375c0.21-1.827 1.606-1.827 1.816 0 0.149 1.293 0.306 1.375 2.625 1.375 1.8 0 2.737 0.27 3.467 1 0.947 0.947 1 1.667 1 13.5s-0.053 12.553-1 13.5c-0.952 0.952-1.667 1-15 1s-14.048-0.048-15-1zM30.11 17.39v-12.5h-2.467c-2.319 0-2.476 0.082-2.625 1.375-0.094 0.819-0.462 1.375-0.908 1.375s-0.814-0.556-0.908-1.375c-0.153-1.326-0.263-1.375-3.092-1.375s-2.939 0.049-3.092 1.375c-0.21 1.827-1.606 1.827-1.816 0-0.153-1.326-0.263-1.375-3.092-1.375s-2.939 0.049-3.092 1.375c-0.21 1.827-1.606 1.827-1.816 0-0.149-1.293-0.306-1.375-2.625-1.375h-2.467v25h28zM7.109 23.39c0-1.417 0.111-1.5 2-1.5s2 0.083 2 1.5c0 1.417-0.111 1.5-2 1.5s-2-0.083-2-1.5zM14.11 23.39c0-1.417 0.111-1.5 2-1.5s2 0.083 2 1.5c0 1.417-0.111 1.5-2 1.5s-2-0.083-2-1.5zM21.11 23.39c0-1.417 0.111-1.5 2-1.5s2 0.083 2 1.5c0 1.417-0.111 1.5-2 1.5s-2-0.083-2-1.5zM7.109 18.39c0-1.417 0.111-1.5 2-1.5s2 0.083 2 1.5c0 1.417-0.111 1.5-2 1.5s-2-0.083-2-1.5zM14.11 18.39c0-1.417 0.111-1.5 2-1.5s2 0.083 2 1.5c0 1.417-0.111 1.5-2 1.5s-2-0.083-2-1.5zM21.11 18.39c0-1.417 0.111-1.5 2-1.5s2 0.083 2 1.5c0 1.417-0.111 1.5-2 1.5s-2-0.083-2-1.5zM7.109 13.39c0-1.417 0.111-1.5 2-1.5s2 0.083 2 1.5c0 1.417-0.111 1.5-2 1.5s-2-0.083-2-1.5zM14.11 13.39c0-1.417 0.111-1.5 2-1.5s2 0.083 2 1.5c0 1.417-0.111 1.5-2 1.5s-2-0.083-2-1.5zM21.11 13.39c0-1.417 0.111-1.5 2-1.5s2 0.083 2 1.5c0 1.417-0.111 1.5-2 1.5s-2-0.083-2-1.5z"></path>
</svg>
