<!-- Generated by IcoMoon.io -->
<svg version="1.1" xmlns="http://www.w3.org/2000/svg" width="32" height="32" viewBox="0 0 32 32">
<title>camera</title>
<path d="M0.818 28.642c-0.925-0.925-1.004-1.673-1.004-9.537 0-9.88 0.116-10.161 4.406-10.73 2.462-0.327 2.577-0.415 3.415-2.608 0.477-1.249 1.269-2.485 1.761-2.748 1.162-0.622 11.8-0.622 12.962 0 0.492 0.263 1.284 1.5 1.761 2.748 0.838 2.193 0.953 2.281 3.415 2.608 4.291 0.569 4.406 0.85 4.406 10.73 0 7.864-0.079 8.612-1.004 9.537-0.956 0.956-1.673 1.004-15.059 1.004s-14.103-0.048-15.059-1.004zM29.681 19.146v-8.241l-1.255-0.377c-0.69-0.207-2.057-0.51-3.038-0.673-1.502-0.25-1.888-0.592-2.448-2.174-1.097-3.098-1.176-3.133-7.063-3.133s-5.966 0.035-7.063 3.133c-0.56 1.583-0.946 1.925-2.448 2.174-0.981 0.163-2.348 0.466-3.038 0.673l-1.255 0.377-0.139 7.718c-0.077 4.245-0.026 8.014 0.113 8.375 0.201 0.523 3.033 0.629 13.943 0.523l13.691-0.134zM12.344 24.501c-2.411-1.216-4.499-4.419-4.499-6.902s2.088-5.686 4.499-6.902c2.817-1.42 4.249-1.42 7.066 0 2.411 1.216 4.499 4.419 4.499 6.902s-2.088 5.686-4.499 6.902c-1.232 0.621-2.822 1.129-3.533 1.129s-2.301-0.508-3.533-1.129zM18.905 22.861c0.81-0.419 1.815-1.424 2.234-2.234 2.182-4.219-0.628-9.052-5.262-9.052-4.632 0-7.444 4.833-5.264 9.047 1.428 2.761 5.274 3.799 8.292 2.238zM11.862 17.622c0-0.263 0.251-1.029 0.557-1.701 0.748-1.643 3.96-3.131 3.96-1.836 0 0.276-0.417 0.502-0.926 0.502-1.119 0-2.588 1.518-2.588 2.675 0 0.461-0.226 0.839-0.502 0.839s-0.502-0.215-0.502-0.478z"></path>
</svg>
