<!-- Generated by IcoMoon.io -->
<svg version="1.1" xmlns="http://www.w3.org/2000/svg" width="32" height="32" viewBox="0 0 32 32">
<title>clip</title>
<path d="M4.124 29.906c-3.172-1.381-4.85-5.155-3.76-8.457 0.381-1.156 3.355-4.469 9.217-10.272 7.324-7.249 8.993-8.657 10.861-9.159 6.925-1.865 12.94 4.133 11.078 11.046-0.478 1.775-1.762 3.378-6.903 8.613-3.474 3.538-6.616 6.432-6.983 6.432-1.711 0-0.181-2.201 5.567-8.010 3.683-3.722 6.376-6.866 6.581-7.682 0.812-3.235-1.033-6.931-4.099-8.212-4.2-1.755-6.295-0.514-16.371 9.699-7.070 7.166-7.404 7.595-7.404 9.526 0 3.399 3.074 5.775 6.4 4.945 0.849-0.212 4.523-3.464 9.537-8.442 8.604-8.542 9.321-9.689 7.239-11.574-1.933-1.75-3.083-1.112-9.372 5.193-5.666 5.681-7.278 6.875-7.278 5.389 0-0.349 2.822-3.45 6.271-6.891 5.937-5.922 6.378-6.256 8.282-6.256 2.801 0 4.75 1.949 4.75 4.752 0 1.932-0.336 2.352-8.271 10.341-9.751 9.818-11.347 10.757-15.341 9.018z"></path>
</svg>
