<!-- Generated by IcoMoon.io -->
<svg version="1.1" xmlns="http://www.w3.org/2000/svg" width="22" height="32" viewBox="0 0 22 32">
<title>clock</title>
<path d="M5.111 31.485c-0.477-0.373-1.043-2.135-1.406-4.375-0.357-2.208-1.144-4.673-1.913-5.993-1.829-3.139-1.812-6.909 0.045-10.078 0.791-1.349 1.599-3.803 1.947-5.913 0.328-1.983 0.913-3.924 1.301-4.311 0.943-0.943 9.765-1.002 10.538-0.071 0.29 0.349 0.794 2.205 1.122 4.125 0.687 4.028 2.844 9.082 4.053 9.495 1.642 0.562 1.642 2.919 0 3.5-1.262 0.446-3.484 5.572-4.117 9.495-0.328 2.030-0.898 3.762-1.359 4.125-0.496 0.39-2.413 0.625-5.103 0.625-2.688 0-4.61-0.235-5.108-0.625zM14.409 29.235c0.141-0.481 0.403-1.7 0.581-2.707l0.324-1.832-1.923 0.686c-2.425 0.865-3.92 0.865-6.345 0l-1.923-0.686 0.324 1.832c0.659 3.726 0.468 3.582 4.771 3.582 3.314 0 3.973-0.138 4.19-0.875zM14.258 22.973c5.32-3.585 5.32-10.141 0-13.726-3.484-2.348-8.249-1.114-10.902 2.824-4.449 6.603 4.3 15.352 10.902 10.902zM9.442 22.566c-0.515-0.834 0.644-1.79 1.333-1.1 0.577 0.577 0.216 1.644-0.556 1.644-0.243 0-0.592-0.245-0.777-0.544zM5.219 20.36c0-0.413 0.338-0.75 0.75-0.75s0.75 0.337 0.75 0.75c0 0.413-0.338 0.75-0.75 0.75s-0.75-0.337-0.75-0.75zM13.719 20.36c0-0.413 0.338-0.75 0.75-0.75s0.75 0.337 0.75 0.75c0 0.413-0.338 0.75-0.75 0.75s-0.75-0.337-0.75-0.75zM3.442 16.566c-0.515-0.834 0.644-1.79 1.333-1.1 0.577 0.577 0.216 1.644-0.556 1.644-0.243 0-0.592-0.245-0.777-0.544zM9.42 16.53c-0.342-0.553 2.869-3.762 4.985-4.981 1.214-0.7 0.806 0.001-1.856 3.186-2.079 2.487-2.538 2.75-3.128 1.795zM15.442 16.566c-0.515-0.834 0.644-1.79 1.333-1.1 0.577 0.577 0.216 1.644-0.556 1.644-0.243 0-0.592-0.245-0.777-0.544zM5.219 11.86c0-0.412 0.338-0.75 0.75-0.75s0.75 0.338 0.75 0.75c0 0.412-0.338 0.75-0.75 0.75s-0.75-0.338-0.75-0.75zM9.442 10.566c-0.515-0.834 0.644-1.79 1.333-1.1 0.577 0.577 0.216 1.644-0.556 1.644-0.243 0-0.592-0.245-0.777-0.544zM10.219 6.153c0.688 0 2.117 0.309 3.176 0.686l1.926 0.686-0.349-2.333c-0.192-1.283-0.453-2.502-0.58-2.708s-1.999-0.375-4.16-0.375h-3.929l-0.541 2.525c-0.298 1.389-0.541 2.6-0.541 2.691s0.844-0.135 1.875-0.503c1.031-0.368 2.438-0.669 3.125-0.669z"></path>
</svg>
