<!-- Generated by IcoMoon.io -->
<svg version="1.1" xmlns="http://www.w3.org/2000/svg" width="32" height="32" viewBox="0 0 32 32">
<title>cloud</title>
<path d="M3.624 26.612c-1.822-0.977-3.545-3.622-3.545-5.442 0-1.619 0.813-3.489 2.059-4.735 0.629-0.629 1.14-1.828 1.2-2.817 0.134-2.2 1.656-3.723 3.827-3.827 1.235-0.059 1.949-0.453 2.616-1.445 1.16-1.725 3.583-3.225 5.905-3.655 4.155-0.77 8.898 2.206 9.993 6.27 0.311 1.154 0.847 2.011 1.258 2.011 1.225 0 4.175 2.975 4.786 4.826 0.767 2.323 0.254 4.812-1.396 6.772-2.275 2.704-3.547 2.958-14.803 2.958-8.909 0-10.403-0.115-11.899-0.917zM28.49 23.814c1.399-1.399 1.707-2.087 1.707-3.815s-0.308-2.416-1.707-3.815c-0.939-0.939-2.188-1.707-2.777-1.707-1.092 0-1.225-0.201-1.765-2.66-0.17-0.773-1.075-2.241-2.011-3.263-1.601-1.747-1.883-1.858-4.712-1.858-3.261 0-4.906 0.992-6.398 3.859-0.605 1.162-0.934 1.312-2.375 1.078-2.173-0.353-3.533 0.892-3.23 2.956 0.168 1.142-0.148 1.819-1.461 3.132-2.19 2.19-2.259 4.28-0.207 6.331l1.467 1.467h21.762z"></path>
</svg>
