<!-- Generated by IcoMoon.io -->
<svg version="1.1" xmlns="http://www.w3.org/2000/svg" width="28" height="32" viewBox="0 0 28 32">
<title>cup</title>
<path d="M5.602 31.561c-0.272-0.344-0.873-4.225-1.334-8.625-1.035-9.866-1.203-10.75-2.047-10.75-2.213 0-3.144-4.741-1.249-6.364 0.548-0.47 1.253-1.649 1.565-2.62 0.995-3.095 0.697-3.016 11.438-3.016s10.442-0.079 11.438 3.016c0.312 0.972 1.017 2.151 1.565 2.62 1.895 1.622 0.964 6.364-1.249 6.364-0.844 0-1.012 0.884-2.047 10.75-0.462 4.4-1.062 8.281-1.334 8.625-0.358 0.453-2.668 0.625-8.372 0.625s-8.014-0.172-8.372-0.625zM20.982 29.811c0.004-0.206 0.142-0.881 0.308-1.5l0.302-1.125h-7.558c-4.157 0-7.555 0.169-7.551 0.375s0.143 0.881 0.308 1.5c0.294 1.098 0.467 1.125 7.243 1.125 3.818 0 6.945-0.169 6.948-0.375zM21.642 24.561c0.153-0.894 0.429-3.144 0.614-5l0.336-3.375h-17.233l0.336 3.375c0.185 1.856 0.461 4.106 0.614 5l0.278 1.625h14.777zM22.975 13.686v-1.5h-18v3h18zM25.975 8.686v-1.5h-24v3h24zM23.975 4.968c0-0.12-0.219-0.795-0.488-1.5l-0.488-1.283h-18.049l-0.488 1.283c-0.268 0.705-0.488 1.38-0.488 1.5s4.5 0.217 10 0.217c5.5 0 10-0.098 10-0.217z"></path>
</svg>
