<!-- Generated by IcoMoon.io -->
<svg version="1.1" xmlns="http://www.w3.org/2000/svg" width="28" height="32" viewBox="0 0 28 32">
<title>data</title>
<path d="M8.63 31.556c-3.68-0.613-7.030-2.304-7.9-3.986-0.568-1.099-0.729-3.631-0.729-11.46 0-11.607 0.178-12.269 3.759-13.952 7.246-3.406 21.228-1.925 23.512 2.492 1.056 2.042 1.056 20.878 0 22.92-1.765 3.413-10.664 5.316-18.641 3.986zM19.957 29.572c1.378-0.296 3.246-1.034 4.15-1.642 1.405-0.944 1.665-1.439 1.794-3.415l0.15-2.311-3.15 1.299c-2.767 1.141-3.85 1.299-8.9 1.299s-6.133-0.158-8.9-1.299l-3.15-1.299 0.15 2.277c0.178 2.695 1.458 3.895 5.234 4.911 2.996 0.805 9.289 0.895 12.623 0.179zM22.223 26.566c-0.515-0.834 0.644-1.79 1.333-1.1 0.577 0.577 0.216 1.644-0.556 1.644-0.243 0-0.592-0.245-0.777-0.544zM19.957 23.572c1.378-0.296 3.246-1.034 4.15-1.642 1.405-0.944 1.665-1.439 1.794-3.415l0.15-2.311-3.15 1.299c-2.767 1.141-3.85 1.299-8.9 1.299s-6.133-0.158-8.9-1.299l-3.15-1.299 0.15 2.277c0.178 2.695 1.458 3.895 5.234 4.911 2.996 0.805 9.289 0.895 12.623 0.179zM22.223 20.566c-0.515-0.834 0.644-1.79 1.333-1.1 0.577 0.577 0.216 1.644-0.556 1.644-0.243 0-0.592-0.245-0.777-0.544zM19.957 17.572c1.378-0.296 3.246-1.034 4.15-1.642 1.408-0.946 1.665-1.437 1.794-3.43l0.151-2.326-2.028 0.98c-1.115 0.539-3.827 1.234-6.026 1.545-4.737 0.67-10.827-0.001-14.023-1.545l-2.028-0.98 0.151 2.292c0.179 2.712 1.451 3.909 5.235 4.926 2.996 0.805 9.289 0.895 12.623 0.179zM22.223 14.566c-0.515-0.834 0.644-1.79 1.333-1.1 0.577 0.577 0.216 1.644-0.556 1.644-0.243 0-0.592-0.245-0.777-0.544zM22.768 9.575c4.276-2.144 4.287-3.782 0.040-5.913-2.913-1.462-10.013-1.997-14.402-1.086-5.53 1.148-7.748 3.986-4.822 6.17 2.285 1.706 5.736 2.368 11.463 2.2 4.414-0.13 5.701-0.358 7.721-1.372z"></path>
</svg>
