<!-- Generated by IcoMoon.io -->
<svg version="1.1" xmlns="http://www.w3.org/2000/svg" width="32" height="32" viewBox="0 0 32 32">
<title>diamond</title>
<path d="M11.39 24.071c-9.793-10.344-11.478-12.358-11.166-13.341 0.168-0.53 1.638-2.234 3.267-3.787l2.961-2.824h19.224l2.961 2.824c1.628 1.553 3.098 3.258 3.267 3.787 0.229 0.721-0.642 1.998-3.47 5.082-8.188 8.932-11.649 12.401-12.369 12.401-0.414 0-2.517-1.864-4.673-4.141zM13.826 18.279c-0.632-3.117-1.266-5.784-1.41-5.928s-1.281-0.191-2.528-0.106l-2.267 0.155 3.541 5.909c1.947 3.25 3.602 5.848 3.677 5.773s-0.381-2.687-1.012-5.803zM21.108 18.063l3.404-5.663-2.271-0.155c-1.249-0.085-2.387-0.039-2.528 0.102s-0.68 2.357-1.196 4.924c-0.517 2.567-1.073 5.231-1.236 5.921-0.426 1.802 0.022 1.201 3.827-5.128zM17.251 19.051c0.485-2.554 1.005-5.151 1.156-5.773 0.258-1.062 0.118-1.129-2.344-1.129s-2.602 0.067-2.344 1.129c0.151 0.621 0.671 3.219 1.156 5.773s1.020 4.643 1.189 4.643c0.169 0 0.704-2.089 1.189-4.643zM11.64 20.557c-0.545-0.897-1.88-3.1-2.966-4.894-1.837-3.035-2.112-3.274-3.944-3.421l-1.969-0.158 2.255 2.417c4.891 5.241 7.256 7.687 7.431 7.687 0.101 0-0.262-0.734-0.808-1.631zM25.192 16.564l4.095-4.486-1.931 0.161c-2.059 0.172-1.738-0.22-6.933 8.443-1.469 2.449-0.324 1.46 4.769-4.119zM7.737 9.684l1.4-1.461-2.685-1.76-4.682 4.682h2.284c1.867 0 2.539-0.267 3.684-1.461zM11.798 10.646c-0.779-1.261-2.132-1.479-3.028-0.489-0.876 0.968-0.851 0.988 1.221 0.988 1.275 0 1.993-0.198 1.807-0.499zM17.569 10.392c-0.344-0.414-1.021-0.753-1.506-0.753s-1.162 0.339-1.506 0.753c-0.539 0.649-0.331 0.753 1.506 0.753s2.045-0.104 1.506-0.753zM23.356 10.158c-0.676-0.747-1.116-0.869-1.807-0.499-1.771 0.948-1.559 1.487 0.585 1.487 2.072 0 2.097-0.020 1.221-0.988zM28.015 8.805l-2.341-2.341-2.685 1.76 1.4 1.461c1.144 1.194 1.817 1.461 3.683 1.461h2.284zM14.456 9.539c0.876-0.876 0.754-1.283-0.665-2.213-1.188-0.778-1.331-0.774-2.263 0.070s-0.942 0.96-0.16 1.823c0.96 1.061 2.218 1.191 3.089 0.32zM20.758 9.219c0.781-0.863 0.771-0.98-0.16-1.823s-1.075-0.848-2.263-0.070c-1.419 0.93-1.541 1.337-0.665 2.213 0.871 0.871 2.129 0.74 3.089-0.32zM10.541 6.879c0.534-0.643 0.387-0.753-1.004-0.753s-1.538 0.11-1.004 0.753c0.344 0.414 0.795 0.753 1.004 0.753s0.66-0.339 1.004-0.753zM17.569 6.879c0.539-0.649 0.331-0.753-1.506-0.753s-2.045 0.104-1.506 0.753c0.344 0.414 1.021 0.753 1.506 0.753s1.162-0.339 1.506-0.753zM23.592 6.879c0.534-0.643 0.387-0.753-1.004-0.753s-1.538 0.11-1.004 0.753c0.344 0.414 0.795 0.753 1.004 0.753s0.66-0.339 1.004-0.753z"></path>
</svg>
