<!-- Generated by IcoMoon.io -->
<svg version="1.1" xmlns="http://www.w3.org/2000/svg" width="32" height="32" viewBox="0 0 32 32">
<title>display</title>
<path d="M6.488 30.878c-0.61-0.987 0.281-1.441 3.512-1.787 2.271-0.243 3.257-0.559 3.257-1.043 0-0.549-1.155-0.694-5.522-0.694-7.962 0-7.529 0.75-7.529-13.051 0-10.374 0.061-11.104 1.004-12.047 0.956-0.956 1.673-1.004 15.059-1.004s14.103 0.048 15.059 1.004c0.943 0.943 1.004 1.673 1.004 12.047 0 13.801 0.432 13.051-7.529 13.051-4.285 0-5.522 0.151-5.522 0.674 0 0.452 1.114 0.824 3.388 1.129 2.475 0.333 3.388 0.659 3.388 1.209 0 0.638-1.465 0.774-9.627 0.889-6.158 0.087-9.741-0.049-9.943-0.376zM30.073 14.302v-10.792h-27.608l-0.136 10.277c-0.075 5.652-0.024 10.569 0.113 10.926 0.197 0.513 3.11 0.621 13.94 0.515l13.691-0.134zM4.447 20.689c-0.139-0.363-0.19-3.925-0.113-7.915l0.14-7.255h23.592v15.561l-11.683 0.135c-9.285 0.107-11.735-0.001-11.936-0.525zM27.313 13.298v-7.027h-22.086v14.055h22.086z"></path>
</svg>
