<!-- Generated by IcoMoon.io -->
<svg version="1.1" xmlns="http://www.w3.org/2000/svg" width="32" height="32" viewBox="0 0 32 32">
<title>eye</title>
<path d="M11.731 25.143c-1.455-0.408-3.332-1.097-4.171-1.531-2.114-1.093-5.253-4.009-6.516-6.051l-1.056-1.708 1.077-1.742c5.451-8.82 18.883-10.7 26.78-3.748 1.253 1.103 2.763 2.79 3.355 3.748l1.077 1.742-1.077 1.742c-3.75 6.068-12.564 9.485-19.47 7.548zM22.962 22.353c2.468-1.193 7.226-5.474 7.226-6.502 0-1.015-4.744-5.302-7.16-6.47-2.943-1.423-7.543-1.893-10.755-1.099-2.995 0.74-7.156 3.43-8.955 5.788l-1.358 1.781 1.33 1.743c1.651 2.164 5.301 4.714 8.024 5.606 3.071 1.006 8.656 0.599 11.65-0.848zM13.157 22.027c-6.191-3.255-4.639-12.169 2.267-13.015 3.669-0.449 7.083 2.323 7.549 6.13 0.641 5.236-5.182 9.321-9.816 6.885zM19.161 21.114c2.658-1.375 3.819-5.471 2.316-8.179-2.212-3.986-8.568-4.053-10.607-0.112-2.854 5.52 2.77 11.145 8.29 8.29zM12.117 15.875c0-0.263 0.251-1.029 0.557-1.701 0.748-1.643 3.96-3.131 3.96-1.836 0 0.276-0.417 0.502-0.926 0.502-1.119 0-2.588 1.518-2.588 2.675 0 0.461-0.226 0.839-0.502 0.839s-0.502-0.215-0.502-0.478z"></path>
</svg>
