<!-- Generated by IcoMoon.io -->
<svg version="1.1" xmlns="http://www.w3.org/2000/svg" width="22" height="32" viewBox="0 0 22 32">
<title>fire</title>
<path d="M6.359 31.391c-2.552-0.945-5.007-3.606-5.816-6.304-0.54-1.804-0.491-2.878 0.342-7.418 0.629-3.429 0.965-7.415 0.95-11.258l-0.024-5.949 2.354 2.56c1.295 1.408 2.881 3.682 3.524 5.053s1.329 2.502 1.524 2.514c0.195 0.011 0.75-1.092 1.232-2.452 0.598-1.683 1.053-2.326 1.428-2.016 0.491 0.407 1.693 2.901 3.129 6.488 0.494 1.234 0.513 1.222 1.499-0.932l0.998-2.182 1.278 2.182c2.414 4.121 3.005 6.050 3.044 9.932 0.046 4.689-1.117 7.231-4.063 8.876-2.665 1.488-8.561 1.957-11.4 0.906zM16.923 28.963c3.112-1.623 4.090-7.402 2.136-12.624l-1.050-2.808-4.735 5.286-0.329-3.898c-0.181-2.144-0.472-4.129-0.647-4.411s-0.951 0.503-1.724 1.746c-0.774 1.243-1.611 2.386-1.861 2.541s-0.738-0.668-1.085-1.828c-0.347-1.16-1.216-3.234-1.932-4.609l-1.301-2.5-0.351 3.5c-0.193 1.925-0.707 5.146-1.142 7.158-1.128 5.216-1.033 8.090 0.334 10.093 1.866 2.734 4.019 3.6 8.375 3.368 2.119-0.113 4.43-0.554 5.313-1.015zM16.307 24.316c0.512-1.333 0.95-4.706 0.612-4.706-0.175 0-1.25 0.675-2.389 1.5-2.686 1.946-3.302 1.891-3.719-0.332l-0.344-1.832-2.62 3.21-0.979-2.523c-0.538-1.388-1.125-2.523-1.304-2.523-0.398 0-0.942 3.136-0.95 5.475-0.003 1.080-0.181 1.547-0.475 1.25-0.524-0.53 0.071-6.202 0.863-8.225 0.468-1.196 0.544-1.127 1.771 1.625 0.705 1.581 1.393 2.875 1.53 2.875s0.792-0.91 1.455-2.022l1.206-2.022 0.307 2.59c0.169 1.425 0.419 2.703 0.557 2.84 0.36 0.36 2.801-1.317 4.406-3.027l1.375-1.464v3.262c0 3.495-0.308 4.844-1.107 4.844-0.275 0-0.363-0.357-0.195-0.794z"></path>
</svg>
