<!-- Generated by IcoMoon.io -->
<svg version="1.1" xmlns="http://www.w3.org/2000/svg" width="32" height="32" viewBox="0 0 32 32">
<title>food</title>
<path d="M4.718 30.976c-0.455-0.503-0.828-1.202-0.828-1.553s-0.9-1.769-2-3.151c-1.1-1.382-2-2.785-2-3.119 0-1.119 1.812-2.262 3.585-2.262 1.607 0 1.806-0.165 2.337-1.938 0.728-2.43 4.291-5.797 6.9-6.522 4.411-1.225 7.586-0.307 10.984 3.176l2.557 2.621 2.336-1.187c2.221-1.129 3.301-1.166 3.301-0.115 0 0.262-1.238 1.083-2.75 1.825s-2.75 1.527-2.75 1.745c0 0.218 0.865 0.396 1.922 0.396 1.862 0 3.578 1.126 3.578 2.349 0 0.286-0.9 1.651-2 3.032s-2 2.839-2 3.238c0 0.399-0.411 1.098-0.914 1.553-0.788 0.713-2.329 0.828-11.172 0.828-9.303 0-10.335-0.085-11.086-0.914zM25.89 28.961c0-0.511 0.9-1.952 2-3.202s2-2.406 2-2.57c0-0.164-6.3-0.298-14-0.298s-14 0.134-14 0.298c0 0.164 0.9 1.321 2 2.57s2 2.69 2 3.202c0 0.875 0.586 0.93 10 0.93s10-0.054 10-0.93zM8.071 18.848c2.521-5.465 9.891-6.461 14.287-1.931 1.937 1.996 2.532 2.352 2.532 1.512 0-0.994-2.812-3.727-4.729-4.599-5.229-2.375-11.32-0.033-13.504 5.192-1.11 2.657 0.181 2.498 1.413-0.174zM9.634 19.912c0.464-1.462 3.059-3.44 4.989-3.802 2.29-0.43 4.967 0.528 6.469 2.313 1.354 1.609 1.799 1.809 1.799 0.81 0-0.756-2.236-2.958-3.842-3.782-1.407-0.723-4.912-0.722-6.316 0.001-1.636 0.843-3.349 2.519-4.152 4.063-0.623 1.198-0.622 1.375 0.014 1.375 0.401 0 0.869-0.44 1.040-0.978zM12.717 19.39c2.257-1.981 4.112-1.962 6.423 0.067 1.91 1.677 2.68 1.669 1.776-0.019-0.725-1.355-3.078-2.548-5.026-2.548-1.907 0-4.296 1.185-4.985 2.472-1.083 2.024-0.472 2.033 1.812 0.028zM15.89 20.261c0.688 0 1.813 0.159 2.5 0.353l1.25 0.353-1.18-1.038c-0.649-0.571-1.806-1.038-2.57-1.038s-1.92 0.467-2.57 1.038l-1.18 1.038 1.25-0.353c0.688-0.194 1.813-0.353 2.5-0.353zM8.048 10.081c0.579-4.084 1.167-5.99 1.566-5.075 0.212 0.488 0.032 1.879-0.414 3.187-0.435 1.277-0.679 2.503-0.542 2.724s-0.006 0.561-0.318 0.753c-0.402 0.248-0.487-0.216-0.292-1.59zM19.89 10.453c0-0.515 0.304-1.809 0.675-2.875s0.578-2.219 0.458-2.563c-0.119-0.344 0.052-0.625 0.38-0.625 0.406 0 0.499 0.558 0.292 1.75-0.168 0.963-0.442 2.537-0.609 3.5-0.319 1.833-1.195 2.429-1.195 0.813zM15.071 5.516c0.774-4.645 1.158-5.892 1.542-5.009 0.212 0.486 0.036 1.865-0.4 3.145-0.427 1.254-0.651 2.608-0.497 3.009s0.001 0.73-0.339 0.73c-0.438 0-0.528-0.549-0.307-1.875z"></path>
</svg>
