<!-- Generated by IcoMoon.io -->
<svg version="1.1" xmlns="http://www.w3.org/2000/svg" width="32" height="32" viewBox="0 0 32 32">
<title>key</title>
<path d="M0.895 31.324c-0.458-0.458-0.786-1.638-0.786-2.83 0-1.944 0.3-2.348 6.125-8.241l6.125-6.196 0.004-3.349c0.003-2.715 0.254-3.775 1.326-5.604 5.001-8.529 18.17-4.902 18.148 4.998-0.013 5.869-4.109 9.747-10.299 9.754-3.98 0.004-5.428 0.955-5.428 3.563 0 1.756-1.030 2.69-2.967 2.69-0.812 0-1.033 0.318-1.033 1.482 0 1.589-1.112 2.518-3.013 2.518-0.593 0-1.651 0.45-2.35 1-1.541 1.212-4.736 1.329-5.851 0.214zM5.973 29.11c0.699-0.55 1.916-1 2.704-1 1.184 0 1.433-0.211 1.433-1.214 0-1.553 1.232-2.786 2.786-2.786 1.019 0 1.214-0.244 1.214-1.519 0-1.066 0.561-2.121 1.879-3.534 1.726-1.851 1.993-1.971 3.283-1.481 3.621 1.377 7.353 0.058 9.702-3.427 3.306-4.906-0.76-12.039-6.863-12.039-5.509 0-9.431 5.672-7.476 10.812 0.502 1.321 0.259 1.642-6 7.914-5.183 5.194-6.524 6.818-6.524 7.905 0 1.139 0.217 1.368 1.296 1.368 0.713 0 1.868-0.45 2.567-1zM22.294 9.925c-1.201-1.201-2.184-2.449-2.184-2.773 0-0.763 2.28-3.043 3.043-3.043 0.766 0 4.957 4.191 4.957 4.957 0 0.764-2.28 3.043-3.043 3.043-0.324 0-1.571-0.983-2.773-2.184zM26.348 10.122c0.835-0.923 0.84-1.069 0.071-2.243-0.453-0.691-1.388-1.626-2.079-2.079-1.174-0.769-1.32-0.764-2.243 0.071-1.333 1.207-1.261 1.564 0.713 3.538s2.332 2.046 3.538 0.713z"></path>
</svg>
