<!-- Generated by IcoMoon.io -->
<svg version="1.1" xmlns="http://www.w3.org/2000/svg" width="32" height="32" viewBox="0 0 32 32">
<title>lab</title>
<path d="M7.838 25.372c-3.992-3.766-7.383-7.345-7.536-7.953-0.546-2.175 0.577-3.014 7.967-5.957 6.677-2.659 7.164-2.941 6.955-4.034-0.264-1.379 2.246-4.209 3.732-4.209 1.23 0 10.154 8.992 10.154 10.232 0 1.449-2.469 3.768-4.012 3.768-1.237 0-1.503 0.452-4.004 6.79-2.526 6.401-3.705 8.21-5.352 8.21-0.355 0-3.911-3.081-7.903-6.846zM19.118 23.969c2.257-5.648 2.35-6.056 1.57-6.948-1.247-1.426-4.408-2.647-8.441-3.259-3.405-0.517-3.801-0.473-6.875 0.757-1.794 0.718-3.262 1.56-3.262 1.871 0 0.895 13.174 13.865 13.93 13.714 0.374-0.075 1.759-2.836 3.078-6.136zM12.333 23.675c-0.515-0.834 0.644-1.79 1.333-1.1 0.577 0.577 0.216 1.644-0.556 1.644-0.243 0-0.592-0.245-0.777-0.544zM14.937 20.305c-1.076-1.188-1.048-2.231 0.087-3.258 1.188-1.076 2.231-1.048 3.258 0.087 1.076 1.188 1.048 2.231-0.087 3.258-1.188 1.076-2.231 1.048-3.258-0.087zM17.86 18.719c0-0.916-0.301-1.293-1.127-1.41-0.676-0.096-1.248 0.154-1.428 0.625-0.498 1.297 0.2 2.37 1.428 2.195 0.826-0.117 1.127-0.494 1.127-1.41zM8.895 18.433c-0.432-0.432-0.786-0.979-0.786-1.214 0-0.555 1.445-2 2-2s2 1.445 2 2c0 0.555-1.445 2-2 2-0.236 0-0.782-0.354-1.214-0.786zM10.886 17.675c0.515-0.834-0.644-1.79-1.333-1.1-0.577 0.577-0.216 1.644 0.556 1.644 0.243 0 0.592-0.245 0.777-0.544zM24.258 14.582c0.673 0.673 1.066 0.746 1.735 0.325 1.6-1.008 1.158-1.92-2.871-5.925l-4.011-3.987-1.095 1.095c-1.056 1.056-1.063 1.13-0.199 2.084 0.998 1.102 1.118 1.021-4.913 3.311-2.238 0.85-2.349 0.964-1.25 1.294 0.663 0.199 2.243 0.502 3.512 0.672s3.294 0.941 4.5 1.712l2.193 1.402 0.765-1.426c0.726-1.354 0.808-1.382 1.634-0.556zM28.333 8.675c-0.515-0.834 0.644-1.79 1.333-1.1 0.577 0.577 0.216 1.644-0.556 1.644-0.243 0-0.592-0.245-0.777-0.544zM27.937 4.305c-1.076-1.188-1.048-2.231 0.087-3.258 1.188-1.076 2.231-1.048 3.258 0.087 1.076 1.188 1.048 2.231-0.087 3.258-1.188 1.076-2.231 1.048-3.258-0.087zM30.86 2.719c0-0.916-0.301-1.293-1.127-1.41-0.676-0.096-1.248 0.154-1.428 0.625-0.498 1.297 0.2 2.37 1.428 2.195 0.826-0.117 1.127-0.494 1.127-1.41z"></path>
</svg>
