<!-- Generated by IcoMoon.io -->
<svg version="1.1" xmlns="http://www.w3.org/2000/svg" width="32" height="32" viewBox="0 0 32 32">
<title>like</title>
<path d="M1.329 31.219c-0.926-0.926-1-1.667-1-10 0-8.521 0.057-9.057 1.067-10.067 0.954-0.954 1.439-1.036 4.573-0.773 3.456 0.29 3.529 0.271 5.144-1.344 1.069-1.069 1.744-2.319 1.943-3.602 0.539-3.469 1.004-4.434 2.369-4.913 2.819-0.992 6.308 3.675 5.766 7.712l-0.25 1.866 4.51 0.353c3.868 0.303 4.686 0.529 5.747 1.59 1.003 1.004 1.174 1.538 0.904 2.832-0.183 0.877-0.318 2.34-0.3 3.249s-0.212 2.111-0.511 2.67c-0.299 0.559-0.616 1.789-0.703 2.735s-0.519 2.267-0.958 2.937c-0.439 0.67-0.798 1.687-0.798 2.259s-0.582 1.623-1.294 2.334c-1.28 1.28-1.358 1.291-7.125 1.026-3.207-0.147-6.984-0.547-8.394-0.888-2.231-0.54-2.715-0.514-3.736 0.201-1.705 1.195-5.68 1.093-6.95-0.178zM7.079 21.219v-8.75h-4.5l-0.138 8.231c-0.076 4.527-0.022 8.534 0.12 8.904 0.175 0.455 0.949 0.623 2.388 0.519l2.13-0.154zM3.808 28.444c-0.531-0.64-0.499-0.92 0.189-1.607 0.776-0.776 0.888-0.776 1.664 0 0.687 0.687 0.72 0.967 0.189 1.607-0.354 0.426-0.813 0.775-1.021 0.775s-0.667-0.349-1.021-0.775zM5.329 27.719c0-0.275-0.225-0.5-0.5-0.5s-0.5 0.225-0.5 0.5c0 0.275 0.225 0.5 0.5 0.5s0.5-0.225 0.5-0.5zM26.737 28.594c0.142-1.235 0.003-1.375-1.375-1.375-0.843 0-1.533-0.225-1.533-0.5s0.905-0.5 2.011-0.5c1.646 0 2.112-0.221 2.566-1.218 0.84-1.844 0.23-2.782-1.811-2.782-0.971 0-1.766-0.225-1.766-0.5s0.872-0.5 1.939-0.5c2.191 0 3.216-0.895 2.975-2.597-0.133-0.935-0.518-1.182-2.038-1.308-2.543-0.21-2.377-1.001 0.25-1.191 1.821-0.132 2.15-0.329 2.297-1.376 0.286-2.029-1.047-2.528-6.756-2.528h-5.142l0.488-1.283c0.804-2.114 0.565-5.334-0.528-7.127-1.449-2.377-2.525-1.937-3.262 1.334-0.721 3.201-1.857 4.846-4.657 6.742l-2.092 1.417 0.276 15.154 3.5 0.849c2.385 0.578 5.252 0.819 9 0.757l5.5-0.092z"></path>
</svg>
