<!-- Generated by IcoMoon.io -->
<svg version="1.1" xmlns="http://www.w3.org/2000/svg" width="24" height="32" viewBox="0 0 24 32">
<title>location</title>
<path d="M11.118 31.776c-0.835-0.336-6.616-7.809-8.251-10.666-4.647-8.12-3.1-15.949 3.884-19.652 2.764-1.466 7.736-1.466 10.5 0 6.985 3.704 8.533 11.546 3.88 19.652-1.778 3.098-7.103 9.951-8.18 10.527-0.96 0.514-0.912 0.51-1.832 0.139zM14.561 27.233c6.86-8.529 8.812-14.352 6.494-19.373-3.54-7.669-14.57-7.669-18.11 0-1.808 3.917-1.047 8.175 2.456 13.75 1.813 2.886 6.171 8.496 6.599 8.496 0.137 0 1.29-1.293 2.561-2.873zM8.677 16.646c-3.33-2.031-3.344-7.534-0.024-9.559 4.887-2.98 10.502 1.199 8.88 6.61-1.061 3.54-5.476 5.010-8.856 2.949zM15.625 15.103c1.883-2.066 1.856-4.439-0.074-6.599-1.199-1.342-1.811-1.622-3.551-1.622-4.097 0-6.447 4.753-3.931 7.951 2.124 2.7 5.24 2.811 7.556 0.269z"></path>
</svg>
