<!-- Generated by IcoMoon.io -->
<svg version="1.1" xmlns="http://www.w3.org/2000/svg" width="24" height="32" viewBox="0 0 24 32">
<title>lock</title>
<path d="M6.019 31.359c-2.208-0.674-4.964-3.546-5.599-5.834-0.288-1.036-0.525-3.853-0.526-6.259-0.002-3.711 0.149-4.527 0.997-5.375 0.55-0.55 1.195-1 1.433-1s0.544-1.554 0.68-3.452c0.43-6.006 3.566-9.281 8.887-9.281 5.303 0 8.458 3.278 8.884 9.23 0.212 2.962 0.395 3.47 1.416 3.935 1.55 0.706 1.858 2.182 1.616 7.73-0.233 5.339-1.234 7.526-4.314 9.43-1.556 0.962-2.638 1.16-6.85 1.257-2.751 0.063-5.732-0.108-6.624-0.38zM19.758 27.758l1.882-1.882v-10.736h-19.5v5.344c0 5.252 0.026 5.371 1.5 6.927 2.156 2.276 2.899 2.473 8.868 2.345l5.368-0.115zM10.593 23.104c-0.411-0.983-0.616-2.199-0.455-2.704 0.562-1.771 2.944-1.771 3.506 0 0.349 1.101-0.974 4.491-1.753 4.491-0.303 0-0.887-0.804-1.298-1.787zM6.989 9.868c0.281-3.885 1.845-5.705 4.902-5.705s4.621 1.82 4.902 5.705c0.189 2.612 0.354 3.022 1.215 3.022 0.919 0 0.981-0.271 0.798-3.508-0.185-3.27-0.325-3.636-2.065-5.375-1.738-1.738-2.072-1.867-4.85-1.867s-3.112 0.128-4.85 1.867c-1.739 1.739-1.88 2.105-2.065 5.375-0.183 3.237-0.121 3.508 0.798 3.508 0.861 0 1.026-0.41 1.215-3.022zM15.89 10.118c0-3.336-1.447-5.227-4-5.227s-4 1.891-4 5.227v2.773h8z"></path>
</svg>
