<!-- Generated by IcoMoon.io -->
<svg version="1.1" xmlns="http://www.w3.org/2000/svg" width="32" height="32" viewBox="0 0 32 32">
<title>mail</title>
<path d="M2.236 25.964c-1.81-0.876-2.191-2.606-2.191-9.954 0-7.491 0.374-9.089 2.338-9.984 1.675-0.763 25.775-0.763 27.45 0 1.964 0.895 2.338 2.493 2.338 9.984s-0.374 9.089-2.338 9.984c-1.6 0.729-26.084 0.703-27.597-0.030zM29.561 23.941c0.963-0.963 0.703-1.569-1.291-2.998-1.029-0.738-2.798-2.031-3.93-2.875l-2.058-1.533-2.675 1.996c-1.471 1.098-3.046 1.996-3.498 1.996s-2.027-0.898-3.498-1.996l-2.675-1.996-2.058 1.533c-1.132 0.843-2.901 2.137-3.93 2.875-1.993 1.429-2.254 2.035-1.291 2.998 0.857 0.857 26.048 0.857 26.905 0zM5.967 18.52c1.697-1.242 3.085-2.372 3.085-2.51 0-0.257-5.839-4.635-6.584-4.936-0.228-0.092-0.414 2.129-0.414 4.936s0.186 5.028 0.414 4.936c0.228-0.092 1.802-1.184 3.499-2.426zM30.163 15.968c0-2.784-0.186-4.986-0.414-4.894-0.753 0.304-6.584 4.68-6.578 4.936 0.008 0.332 6.13 4.948 6.615 4.988 0.207 0.017 0.376-2.246 0.376-5.030zM23.755 14.47c9.402-6.992 9.401-6.993-7.646-6.993-12.786 0-14.094 0.161-14.035 1.732 0.037 0.999 13.219 10.39 14.299 10.187 0.559-0.105 3.881-2.322 7.382-4.926z"></path>
</svg>
