<!-- Generated by IcoMoon.io -->
<svg version="1.1" xmlns="http://www.w3.org/2000/svg" width="32" height="32" viewBox="0 0 32 32">
<title>megaphone</title>
<path d="M6.49 31.291c-0.391-0.391-0.6-2.444-0.6-5.9 0-5.446-0.336-6.5-2.072-6.5-0.48 0-1.503-0.543-2.275-1.207-1.201-1.033-1.403-1.579-1.403-3.793s0.202-2.76 1.403-3.793c1.31-1.127 1.791-1.207 7.25-1.209 7.024-0.002 8.004-0.443 11.093-4.993 3.079-4.533 6.199-5.149 8.802-1.737 4.954 6.495 3.513 23.115-2.193 25.288-2.367 0.901-4.085-0.023-6.603-3.553-2.396-3.359-4.962-5.317-6.296-4.805-0.645 0.247-0.741 1.012-0.556 4.426 0.123 2.27 0.383 4.71 0.58 5.423 0.545 1.976-0.751 2.954-3.915 2.954-1.438 0-2.884-0.27-3.214-0.6zM11.89 29.17c0-0.396-0.225-0.86-0.5-1.029s-0.5-2.321-0.5-4.779v-4.471h-1.803c-1.439 0-1.742 0.16-1.5 0.791 0.167 0.435 0.303 2.91 0.303 5.5v4.709h2c1.408 0 2-0.213 2-0.721zM27.099 24.638c4.353-4.697 3.264-21.357-1.474-22.546-2.176-0.546-4.008 1.441-5.001 5.423-0.326 1.306-0.254 1.375 1.434 1.375 1.157 0 2.266 0.421 3.179 1.207 1.201 1.033 1.403 1.579 1.403 3.793s-0.202 2.76-1.403 3.793c-0.914 0.786-2.022 1.207-3.179 1.207-1.637 0-1.752 0.097-1.468 1.228 0.902 3.595 2.533 5.772 4.324 5.772 0.563 0 1.546-0.564 2.185-1.253zM18.14 13.942v-4.948l-1.359 0.703c-0.747 0.386-2.208 0.879-3.245 1.095-2.212 0.46-3.153 2.217-2.367 4.421 0.36 1.010 1.003 1.458 2.722 1.897 1.674 0.428 4.25 1.498 4.25 1.766 0 0.008 0-2.212 0-4.933zM10.316 15.39c-0.364-1.044-0.364-1.956 0-3l0.523-1.5h-3.956c-4.232 0-4.992 0.456-4.992 3s0.759 3 4.992 3h3.956zM24.603 15.265c0.308-0.88 0.308-1.87 0-2.75-0.408-1.166-0.802-1.398-2.597-1.529l-2.116-0.154v6.115l2.116-0.154c1.795-0.13 2.189-0.362 2.597-1.529z"></path>
</svg>
