<!-- Generated by IcoMoon.io -->
<svg version="1.1" xmlns="http://www.w3.org/2000/svg" width="32" height="32" viewBox="0 0 32 32">
<title>music</title>
<path d="M3.007 31.124c-3.254-1.632-3.764-5.007-1.166-7.72 2.181-2.277 5.125-2.858 8.284-1.636 0.814 0.315 0.875-0.297 0.875-8.726 0-8.923 0.018-9.072 1.125-9.549 1.758-0.757 17.815-3.486 18.643-3.168 1.182 0.453 1.296 1.824 1.135 13.537l-0.153 11.073-1.479 1.543c-3.999 4.172-10.998 2.582-10.998-2.498 0-4.288 5.17-7.024 9.852-5.213 0.804 0.311 0.875-0.154 0.875-5.715 0-3.329-0.135-6.053-0.3-6.053-0.39 0-14.113 2.434-15.543 2.756-1.067 0.241-1.097 0.46-1.25 9.206-0.153 8.761-0.184 8.989-1.407 10.313-1.401 1.517-3.889 2.725-5.609 2.724-0.628-0-1.925-0.394-2.884-0.875zM9.462 28.706c2.943-2.477 1.509-5.706-2.535-5.706-2.454 0-4.927 2.016-4.927 4.016 0 3.025 4.629 4.073 7.462 1.689zM28.858 25.271c1.406-1.635 1.45-2.963 0.142-4.271-2.372-2.372-8-0.25-8 3.016 0 3.19 5.446 4.060 7.858 1.255zM20.675 6.745c10.019-1.777 9.325-1.535 9.325-3.255 0-0.82-0.169-1.49-0.375-1.488-0.506 0.003-14.083 2.41-15.5 2.748-0.855 0.204-1.125 0.626-1.125 1.759 0 0.82 0.135 1.49 0.3 1.49s3.484-0.565 7.375-1.255z"></path>
</svg>
