<!-- Generated by IcoMoon.io -->
<svg version="1.1" xmlns="http://www.w3.org/2000/svg" width="32" height="32" viewBox="0 0 32 32">
<title>news</title>
<path d="M2.073 31.634c-1.939-0.939-2.182-2.465-2.182-13.689 0-10.060 0.062-10.789 1-11.726 0.55-0.55 1.45-1 2-1 0.778 0 1-0.333 1-1.5 0-0.833 0.444-1.944 1-2.5 0.944-0.944 1.667-1 13-1s12.056 0.056 13 1c0.95 0.95 1 1.667 1 14.226 0 14.017-0.175 15.237-2.329 16.218-1.594 0.726-25.983 0.7-27.489-0.030zM29.338 29.533c0.402-0.485 0.53-4.564 0.436-13.875l-0.133-13.189h-23.5l-0.25 12.75c-0.213 10.889-0.359 12.75-1 12.75-0.638 0-0.77-1.55-0.885-10.41-0.124-9.556-0.206-10.396-1-10.243-0.782 0.15-0.878 1.184-1 10.846-0.094 7.456 0.037 10.888 0.436 11.368 0.839 1.010 26.058 1.012 26.896 0.002zM7.891 27.719c0-0.296 1.833-0.5 4.5-0.5s4.5 0.204 4.5 0.5c0 0.296-1.833 0.5-4.5 0.5s-4.5-0.204-4.5-0.5zM18.89 27.719c0-0.296 1.833-0.5 4.5-0.5s4.5 0.204 4.5 0.5c0 0.296-1.833 0.5-4.5 0.5s-4.5-0.204-4.5-0.5zM7.891 24.719c0-0.296 1.833-0.5 4.5-0.5s4.5 0.204 4.5 0.5c0 0.296-1.833 0.5-4.5 0.5s-4.5-0.204-4.5-0.5zM18.89 24.719c0-0.296 1.833-0.5 4.5-0.5s4.5 0.204 4.5 0.5c0 0.296-1.833 0.5-4.5 0.5s-4.5-0.204-4.5-0.5zM7.891 21.719c0-0.296 1.833-0.5 4.5-0.5s4.5 0.204 4.5 0.5c0 0.296-1.833 0.5-4.5 0.5s-4.5-0.204-4.5-0.5zM18.89 21.719c0-0.296 1.833-0.5 4.5-0.5s4.5 0.204 4.5 0.5c0 0.296-1.833 0.5-4.5 0.5s-4.5-0.204-4.5-0.5zM7.891 18.719c0-0.317 3.667-0.5 10-0.5s10 0.183 10 0.5c0 0.317-3.667 0.5-10 0.5s-10-0.183-10-0.5zM7.891 15.719c0-0.317 3.667-0.5 10-0.5s10 0.183 10 0.5c0 0.317-3.667 0.5-10 0.5s-10-0.183-10-0.5zM8.109 12.568c-0.146-0.381-0.199-2.359-0.117-4.395l0.148-3.703h8.5v8.5l-4.133 0.145c-3.161 0.111-4.195-0.018-4.398-0.547zM14.89 8.719v-2.5h-5v5h5zM18.89 12.719c0-0.296 1.833-0.5 4.5-0.5s4.5 0.204 4.5 0.5c0 0.296-1.833 0.5-4.5 0.5s-4.5-0.204-4.5-0.5zM18.89 9.719c0-0.296 1.833-0.5 4.5-0.5s4.5 0.204 4.5 0.5c0 0.296-1.833 0.5-4.5 0.5s-4.5-0.204-4.5-0.5zM18.89 6.719c0-0.296 1.833-0.5 4.5-0.5s4.5 0.204 4.5 0.5c0 0.296-1.833 0.5-4.5 0.5s-4.5-0.204-4.5-0.5z"></path>
</svg>
