<!-- Generated by IcoMoon.io -->
<svg version="1.1" xmlns="http://www.w3.org/2000/svg" width="32" height="32" viewBox="0 0 32 32">
<title>note</title>
<path d="M0.901 30.158c-0.952-0.952-1.004-1.673-1.004-14.055s0.051-13.102 1.004-14.055c0.945-0.945 1.673-1.004 12.436-1.004h11.432l7.253 7.302v10.404c0 9.735-0.065 10.468-1.004 11.408-0.956 0.956-1.673 1.004-15.059 1.004s-14.103-0.048-15.059-1.004zM29.9 19.491l0.137-9.412h-2.521c-3.414 0-4.529-1.114-4.529-4.528v-2.52l-20.831 0.271-0.135 12.289c-0.074 6.759-0.023 12.579 0.113 12.934 0.195 0.508 3.153 0.617 13.939 0.511l13.691-0.134zM3.913 25.64c0-0.321 4.35-0.502 12.047-0.502s12.047 0.181 12.047 0.502c0 0.321-4.35 0.502-12.047 0.502s-12.047-0.181-12.047-0.502zM3.913 22.629c0-0.321 4.35-0.502 12.047-0.502s12.047 0.181 12.047 0.502c0 0.321-4.35 0.502-12.047 0.502s-12.047-0.181-12.047-0.502zM3.913 19.617c0-0.321 4.35-0.502 12.047-0.502s12.047 0.181 12.047 0.502c0 0.321-4.35 0.502-12.047 0.502s-12.047-0.181-12.047-0.502zM3.913 16.605c0-0.321 4.35-0.502 12.047-0.502s12.047 0.181 12.047 0.502c0 0.321-4.35 0.502-12.047 0.502s-12.047-0.181-12.047-0.502zM4.13 13.435c-0.148-0.385-0.201-2.145-0.118-3.911l0.151-3.21h8.533v7.529l-4.149 0.146c-3.189 0.112-4.211-0.016-4.418-0.555zM10.94 10.080v-2.008h-5.020v4.016h5.020zM14.956 13.593c0-0.309 2.51-0.502 6.525-0.502s6.526 0.193 6.526 0.502c0 0.309-2.51 0.502-6.526 0.502s-6.526-0.193-6.526-0.502zM14.956 10.582c0-0.279 1.339-0.502 3.012-0.502s3.012 0.223 3.012 0.502c0 0.279-1.339 0.502-3.012 0.502s-3.012-0.223-3.012-0.502zM14.956 7.57c0-0.279 1.339-0.502 3.012-0.502s3.012 0.223 3.012 0.502c0 0.279-1.339 0.502-3.012 0.502s-3.012-0.223-3.012-0.502zM27.238 6.043l-2.996-3.033-0.155 2.319c-0.205 3.070 0.443 3.747 3.589 3.747h2.558z"></path>
</svg>
