<!-- Generated by IcoMoon.io -->
<svg version="1.1" xmlns="http://www.w3.org/2000/svg" width="32" height="32" viewBox="0 0 32 32">
<title>paperplane</title>
<path d="M10.742 28.325c-2.128-3.506-2.23-3.592-6.127-5.139-2.18-0.865-4.051-1.838-4.159-2.161-0.273-0.82 30.763-21.443 31.365-20.841 0.495 0.495-4.279 30.617-4.971 31.357-0.206 0.22-2.686-0.52-5.511-1.646s-5.182-1.981-5.238-1.901c-0.055 0.080-0.608 0.99-1.228 2.021s-1.317 1.875-1.548 1.875c-0.231 0-1.394-1.605-2.584-3.566zM27.546 18.104c1.031-6.208 1.768-11.395 1.636-11.526-0.212-0.212-12.115 17.921-12.464 18.989-0.129 0.394 7.179 3.68 8.407 3.78 0.33 0.027 1.288-4.422 2.422-11.242zM21.279 16.57c4.166-6.501 7.513-11.88 7.437-11.952s-4.221 4.247-9.212 9.599l-9.074 9.731 1.241 2.221c0.683 1.222 1.419 2.221 1.636 2.221s3.804-5.319 7.97-11.82zM22.983 9.18l3.595-3.96-11.422 7.622c-6.282 4.192-11.275 7.768-11.096 7.948s1.494 0.821 2.922 1.427l2.596 1.101 4.905-5.088c2.698-2.799 6.523-6.87 8.5-9.049z"></path>
</svg>
