<!-- Generated by IcoMoon.io -->
<svg version="1.1" xmlns="http://www.w3.org/2000/svg" width="32" height="32" viewBox="0 0 32 32">
<title>params</title>
<path d="M3.066 31.015c-0.918-0.918-1-1.667-1-9.086 0-6.958-0.12-8.219-0.864-9.040-1.129-1.248-1.129-4.501 0-5.749 0.528-0.583 0.864-1.766 0.864-3.040 0-1.419 0.32-2.405 1-3.086 2.186-2.186 5-0.45 5 3.086 0 1.274 0.336 2.457 0.864 3.040 1.129 1.248 1.129 4.501 0 5.749-0.743 0.821-0.864 2.082-0.864 9.040 0 7.419-0.082 8.168-1 9.086-0.55 0.55-1.45 1-2 1s-1.45-0.45-2-1zM5.954 22.348c0.134-7.078 0.103-7.334-0.875-7.334-0.971 0-1.013 0.302-1.013 7.167 0 3.942 0.155 7.321 0.344 7.51 1.083 1.083 1.415-0.497 1.545-7.343zM7.152 12.187c1.139-1.030 1.18-3.051 0.087-4.258-1.717-1.897-5.173-0.562-5.173 1.999 0 2.675 3.103 4.053 5.086 2.259zM5.974 3.639c-0.094-0.819-0.462-1.375-0.908-1.375s-0.814 0.556-0.908 1.375c-0.129 1.12 0.040 1.375 0.908 1.375s1.037-0.255 0.908-1.375zM14.066 31.015c-0.68-0.68-1-1.667-1-3.086 0-1.274-0.336-2.457-0.864-3.040-0.503-0.555-0.864-1.757-0.864-2.874s0.361-2.319 0.864-2.874c0.743-0.821 0.864-2.082 0.864-9.040 0-7.419 0.082-8.168 1-9.086 0.55-0.55 1.45-1 2-1s1.45 0.45 2 1c0.918 0.918 1 1.667 1 9.086 0 6.958 0.12 8.219 0.864 9.040 1.129 1.248 1.129 4.501 0 5.749-0.528 0.583-0.864 1.766-0.864 3.040 0 2.315-1.3 4.086-3 4.086-0.55 0-1.45-0.45-2-1zM16.974 28.351c0.127-1.068-0.049-1.336-0.875-1.336-0.749 0-1.033 0.321-1.033 1.167 0 2.27 1.642 2.416 1.908 0.17zM18.152 24.187c1.897-1.717 0.562-5.172-1.999-5.172-2.675 0-4.053 3.103-2.259 5.086 1.030 1.139 3.051 1.18 4.258 0.087zM16.954 9.639c-0.116-6.161-0.262-7.375-0.888-7.375s-0.773 1.214-0.888 7.375c-0.134 7.151-0.107 7.375 0.888 7.375s1.023-0.224 0.888-7.375zM25.066 31.015c-0.918-0.918-1-1.667-1-9.086 0-6.958-0.12-8.219-0.864-9.040-1.129-1.248-1.129-4.501 0-5.749 0.528-0.583 0.864-1.766 0.864-3.040 0-1.419 0.32-2.405 1-3.086 2.186-2.186 5-0.45 5 3.086 0 1.274 0.336 2.457 0.864 3.040 1.129 1.248 1.129 4.501 0 5.749-0.743 0.821-0.864 2.082-0.864 9.040 0 7.419-0.082 8.168-1 9.086-0.55 0.55-1.45 1-2 1s-1.45-0.45-2-1zM27.954 22.348c0.134-7.078 0.103-7.334-0.875-7.334-0.971 0-1.013 0.302-1.013 7.167 0 3.942 0.155 7.321 0.344 7.51 1.083 1.083 1.415-0.497 1.545-7.343zM29.152 12.187c1.897-1.717 0.562-5.173-1.999-5.173-2.674 0-4.053 3.103-2.259 5.086 1.030 1.139 3.051 1.18 4.258 0.087zM27.974 3.639c-0.21-1.827-1.606-1.827-1.816 0-0.129 1.12 0.040 1.375 0.908 1.375s1.037-0.255 0.908-1.375z"></path>
</svg>
