<!-- Generated by IcoMoon.io -->
<svg version="1.1" xmlns="http://www.w3.org/2000/svg" width="32" height="32" viewBox="0 0 32 32">
<title>pen</title>
<path d="M1.283 30.829c-0.706-0.706-1.282-1.575-1.28-1.931s0.657-2.988 1.456-5.848l1.453-5.201 8.419-8.438c9.35-9.371 10.476-10.077 14.269-8.94 2.682 0.803 5.126 3.247 5.929 5.929 1.146 3.825 0.457 4.911-9.137 14.408l-8.642 8.554-4 1.058c-6.952 1.839-7.033 1.842-8.467 0.408zM6.125 29.474c2.053-0.57 2.161-0.8 1.278-2.738-0.546-1.197-2.69-2.736-3.813-2.736-0.625 0-1.782 4.277-1.416 5.233 0.345 0.898 1.362 0.96 3.951 0.241zM13.125 27.117c1.091-0.962 1.139-3.656 0.101-5.664-1.661-3.212-6.919-4.664-8.43-2.328-0.4 0.619-0.873 1.717-1.051 2.44-0.284 1.156-0.092 1.428 1.591 2.25 1.245 0.608 2.239 1.6 2.844 2.838 0.857 1.755 1.052 1.877 2.5 1.569 0.864-0.183 1.964-0.681 2.446-1.105zM25 13.822c0-1.002-0.173-1.822-0.385-1.822s-2.379 2.003-4.815 4.45c-4.369 4.39-4.425 4.476-4.073 6.353l0.357 1.903 4.458-4.531c3.967-4.031 4.458-4.732 4.458-6.353zM19.962 15.288l4.692-4.712-1.538-1.538c-0.846-0.846-1.729-1.538-1.962-1.538s-2.529 2.115-5.103 4.699l-4.68 4.699 1.69 1.536c0.929 0.845 1.807 1.543 1.95 1.551s2.371-2.106 4.952-4.697zM15.5 11.75l4.73-4.75h-1.887c-1.692 0-2.336 0.438-6.24 4.244-3.543 3.453-4.214 4.337-3.603 4.742 1.468 0.976 2.327 0.457 7-4.236zM29.997 8.519c-0.010-5.127-6.236-8.356-10.002-5.188l-1.582 1.331 2.419 0.903c2.914 1.088 5.434 3.786 5.917 6.334l0.351 1.851 1.451-1.731c1.004-1.198 1.45-2.276 1.447-3.5z"></path>
</svg>
