<!-- Generated by IcoMoon.io -->
<svg version="1.1" xmlns="http://www.w3.org/2000/svg" width="22" height="32" viewBox="0 0 22 32">
<title>phone</title>
<path d="M1.329 31c-0.952-0.952-1-1.667-1-15s0.048-14.048 1-15c0.926-0.926 1.667-1 10-1s9.074 0.074 10 1c0.952 0.952 1 1.667 1 15s-0.048 14.048-1 15c-0.926 0.926-1.667 1-10 1s-9.074-0.074-10-1zM20.237 28.375l0.158-1.375h-18.066v1.167c0 0.642 0.155 1.322 0.345 1.511s4.183 0.283 8.875 0.208l8.53-0.136zM10.329 28.5c0-0.275 0.45-0.5 1-0.5s1 0.225 1 0.5c0 0.275-0.45 0.5-1 0.5s-1-0.225-1-0.5zM20.328 16v-10h-18v20h18zM20.237 3.625l-0.158-1.375h-17.5l-0.316 2.75h18.133zM9.329 3.5c0-0.275 0.9-0.5 2-0.5s2 0.225 2 0.5c0 0.275-0.9 0.5-2 0.5s-2-0.225-2-0.5z"></path>
</svg>
