<!-- Generated by IcoMoon.io -->
<svg version="1.1" xmlns="http://www.w3.org/2000/svg" width="30" height="32" viewBox="0 0 30 32">
<title>photo</title>
<path d="M2.182 31.441c-1.978-0.958-2.182-2.397-2.182-15.415 0-13.206 0.191-14.471 2.329-15.445 1.662-0.757 23.681-0.757 25.343 0 2.138 0.974 2.329 2.239 2.329 15.445s-0.191 14.471-2.329 15.445c-1.587 0.723-23.988 0.697-25.489-0.030zM27.4 29.426c0.854-0.854 0.854-25.946 0-26.8-0.852-0.852-23.948-0.852-24.8 0-0.854 0.854-0.854 25.946 0 26.8 0.852 0.852 23.948 0.852 24.8 0zM4.226 23.395c-0.137-0.358-0.188-4.806-0.113-9.885l0.137-9.234h21.5v19.5l-10.637 0.135c-8.373 0.106-10.69-0.004-10.887-0.516zM14.953 16.651c-3.099-3.506-5.684-6.446-5.744-6.534s-1.026 0.813-2.146 2l-2.037 2.159-0.025 8.75h15.587zM24.98 21.651c-0.013-0.879-0.729-2.159-1.984-3.546l-1.964-2.171-1.25 1.421c-0.688 0.782-1.257 1.539-1.266 1.682s0.676 1.1 1.521 2.125c1.229 1.49 1.88 1.864 3.25 1.864 1.541 0 1.712-0.138 1.693-1.375zM25 11.776v-6.75h-20v8.129l3.98-4.379 1.635 1.755c0.899 0.965 2.816 3.091 4.259 4.724l2.624 2.969 3.521-3.412 1.857 1.857c1.021 1.021 1.917 1.857 1.991 1.857s0.133-3.037 0.133-6.75zM17 12.026c-0.55-0.55-1-1.45-1-2s0.45-1.45 1-2c0.55-0.55 1.45-1 2-1 1.288 0 3 1.712 3 3 0 0.55-0.45 1.45-1 2s-1.45 1-2 1c-0.55 0-1.45-0.45-2-1zM20.48 11.3c0.777-0.937 0.506-2.268-0.605-2.968-1.732-1.091-3.683 1.367-2.355 2.968 0.772 0.931 2.188 0.931 2.96 0z"></path>
</svg>
