<!-- Generated by IcoMoon.io -->
<svg version="1.1" xmlns="http://www.w3.org/2000/svg" width="32" height="32" viewBox="0 0 32 32">
<title>search</title>
<path d="M1.141 30.859c-2.037-2.037-1.622-3.011 3.504-8.228l4.731-4.815-0.779-2.24c-1.828-5.256 0.781-11.338 6.067-14.142 1.446-0.767 2.9-1.061 5.25-1.061 4.857 0 8.462 2.24 10.801 6.713 1.316 2.516 1.242 7.628-0.149 10.25-2.803 5.286-8.886 7.895-14.142 6.067l-2.24-0.779-4.815 4.731c-5.218 5.126-6.191 5.541-8.228 3.504zM8.512 26.204l4.453-4.382-2.863-2.743-4.344 4.439c-2.389 2.442-4.344 4.677-4.344 4.968 0 0.688 1.418 2.1 2.108 2.1 0.295 0 2.541-1.972 4.99-4.382zM23.798 21.312c5.207-2.175 7.558-8.304 5.171-13.476-3.54-7.669-14.57-7.669-18.11 0-1.662 3.6-0.945 8.303 1.704 11.184 2.579 2.806 7.57 3.824 11.235 2.292zM13.109 10.987c0.396-1.982 1.466-3.656 2.963-4.637 1.56-1.022 4.342-1.552 4.342-0.827 0 0.309-0.506 0.564-1.125 0.566-2.418 0.007-5.319 2.916-5.357 5.372-0.010 0.619-0.271 1.125-0.58 1.125-0.366 0-0.451-0.558-0.243-1.599z"></path>
</svg>
