<!-- Generated by IcoMoon.io -->
<svg version="1.1" xmlns="http://www.w3.org/2000/svg" width="32" height="32" viewBox="0 0 32 32">
<title>settings</title>
<path d="M13.286 31.234c-0.432-0.432-0.786-1.201-0.786-1.709 0-2.618-1.266-3.147-3.696-1.545-3.166 2.087-6.852-2.121-4.538-5.181 1.433-1.895 0.685-3.279-1.771-3.279-1.487 0-2.495-1.414-2.495-3.5s1.008-3.5 2.495-3.5c2.456 0 3.204-1.385 1.771-3.279-2.425-3.206 1.748-7.38 4.955-4.955 1.895 1.433 3.279 0.685 3.279-1.771 0-1.487 1.414-2.495 3.5-2.495s3.5 1.008 3.5 2.495c0 2.457 1.385 3.204 3.279 1.771 3.206-2.425 7.38 1.748 4.955 4.955-1.433 1.895-0.685 3.279 1.771 3.279 1.487 0 2.495 1.414 2.495 3.5s-1.008 3.5-2.495 3.5c-2.456 0-3.204 1.385-1.771 3.279 1.081 1.429 0.925 3.403-0.359 4.559-1.705 1.535-2.593 1.667-4.179 0.622-2.43-1.602-3.696-1.073-3.696 1.545 0 0.508-0.354 1.277-0.786 1.709-1.021 1.021-4.408 1.021-5.429 0zM17.785 28.258c0.571-3.043 3.149-4.065 5.691-2.255l1.381 0.983 1.042-1.109c1.031-1.098 1.032-1.122 0.082-2.358-1.851-2.409-0.77-5.146 2.256-5.714 1.537-0.288 1.762-0.517 1.762-1.785s-0.225-1.497-1.762-1.785c-3.043-0.571-4.065-3.149-2.255-5.691l0.983-1.381-1.109-1.042c-1.098-1.031-1.122-1.032-2.358-0.082-2.409 1.851-5.146 0.77-5.714-2.256-0.288-1.537-0.517-1.762-1.785-1.762s-1.497 0.225-1.785 1.762c-0.568 3.026-3.305 4.107-5.714 2.256-1.236-0.949-1.261-0.949-2.358 0.082l-1.109 1.042 0.983 1.381c1.81 2.542 0.789 5.12-2.255 5.691-1.537 0.288-1.762 0.517-1.762 1.785s0.225 1.497 1.762 1.785c3.043 0.571 4.065 3.149 2.255 5.691l-0.983 1.381 1.109 1.042c1.098 1.031 1.122 1.032 2.358 0.082 2.409-1.851 5.146-0.77 5.714 2.256 0.288 1.537 0.517 1.762 1.785 1.762s1.497-0.225 1.785-1.762zM13.036 22.171c-6.167-3.242-4.621-12.122 2.258-12.964 3.655-0.447 7.055 2.314 7.52 6.106 0.639 5.216-5.161 9.284-9.777 6.858zM20.3 20.32c1.497-1.497 1.7-2.010 1.7-4.3s-0.203-2.803-1.7-4.3c-2.48-2.48-6.12-2.48-8.6 0s-2.48 6.12 0 8.6c1.497 1.497 2.010 1.7 4.3 1.7s2.803-0.203 4.3-1.7zM14.161 19.426c-2.762-1.335-2.52-5.721 0.382-6.923 4.453-1.844 7.533 4.956 3.15 6.953-1.479 0.674-2.088 0.669-3.532-0.029zM18.086 18.192c1.139-1.030 1.18-3.051 0.087-4.258-1.717-1.897-5.172-0.562-5.172 1.999 0 2.675 3.103 4.053 5.086 2.259z"></path>
</svg>
