<!-- Generated by IcoMoon.io -->
<svg version="1.1" xmlns="http://www.w3.org/2000/svg" width="32" height="32" viewBox="0 0 32 32">
<title>shop</title>
<path d="M3.875 31.474c-0.767-0.447-0.875-1.369-0.875-7.485 0-4.317-0.191-6.975-0.5-6.975-1.006 0-2.5-2.038-2.5-3.41 0-0.865 0.773-2.446 2-4.090 1.794-2.404 2-2.979 2-5.573 0-2.348 0.182-2.99 0.967-3.41 0.576-0.308 5.107-0.518 11.214-0.518 11.884 0 11.819-0.023 11.819 4.195 0 2.281 0.261 2.974 2 5.305 1.227 1.644 2 3.226 2 4.090 0 1.372-1.494 3.41-2.5 3.41-0.308 0-0.5 2.571-0.5 6.714 0 5.437-0.149 6.864-0.786 7.5-0.669 0.669-2.469 0.783-12.125 0.77-6.768-0.009-11.692-0.221-12.214-0.525zM11.608 24.639l0.142-5.375h9l0.284 10.75h5.966v-13h-22v13h6.466zM20 25.014v-5h-7.5v10h7.5zM6.931 11.514l2.018-3.5h-1.691c-1.389 0-2.009 0.388-3.475 2.177-2.411 2.942-2.408 4.823 0.007 4.823 0.865 0 1.587-0.804 3.141-3.5zM11.168 12.022c1.046-3.763 1.040-4.008-0.107-4.008-1.104 0-1.385 0.329-3.519 4.125l-1.616 2.875h4.409zM15.5 11.514c0-3.337-0.054-3.5-1.172-3.5-1.020 0-1.304 0.453-2.193 3.5l-1.021 3.5h4.385zM19.864 11.514c-0.889-3.047-1.173-3.5-2.192-3.5-1.117 0-1.172 0.163-1.172 3.5v3.5h4.385zM24.457 12.139c-2.134-3.796-2.414-4.125-3.519-4.125-1.147 0-1.153 0.244-0.107 4.008l0.832 2.992h4.409zM29.913 13.613c0.106-0.751-0.471-1.926-1.658-3.375-1.503-1.834-2.118-2.223-3.513-2.223h-1.691l2.034 3.527c1.791 3.107 2.191 3.509 3.35 3.375 0.936-0.108 1.363-0.485 1.479-1.304zM26 4.014v-2h-20v4h20z"></path>
</svg>
