<!-- Generated by IcoMoon.io -->
<svg version="1.1" xmlns="http://www.w3.org/2000/svg" width="32" height="32" viewBox="0 0 32 32">
<title>sound</title>
<path d="M4.405 27.595c-2.885-2.885-4.405-4.787-4.405-5.511 0-0.608 0.9-2.082 2-3.276l2-2.17v-7.319c0-6.652 0.091-7.41 1-8.319 0.55-0.55 1.495-1 2.101-1 0.768 0 4.62 3.508 12.75 11.611 11.056 11.020 11.649 11.706 11.649 13.482 0 1.339-0.275 2.019-0.967 2.389-0.536 0.287-4.13 0.518-8.069 0.518h-7.102l-2.17 2c-1.193 1.1-2.667 2-3.276 2-0.724 0-2.627-1.521-5.511-4.405zM12.008 28.242l1.704-1.758-8.427-8.471-1.642 1.592c-0.903 0.875-1.642 1.936-1.642 2.357 0 0.863 6.93 8.039 7.764 8.039 0.297 0 1.306-0.791 2.243-1.758zM16.746 15.494l-10.496-10.506-0.282 12.21 8.762 8.802h12.512zM29.899 24.899c0.158-0.817-21.897-22.525-23.175-22.81-0.398-0.089-0.724 0.134-0.724 0.496 0 0.868 22.596 23.467 23.247 23.25 0.277-0.092 0.57-0.513 0.652-0.936zM30.333 14.667c-0.183-0.183-0.338-1.027-0.344-1.875-0.023-3.292-3.132-7.806-6.619-9.609-0.838-0.433-2.558-0.936-3.822-1.117-1.543-0.221-2.299-0.571-2.299-1.066 0-1.084 1.401-1.173 4.464-0.283 5.603 1.629 9.786 6.689 9.786 11.839 0 2.272-0.358 2.919-1.167 2.11zM26.867 12.523c-0.486-3.624-3.766-6.904-7.39-7.39-1.087-0.146-1.977-0.486-1.977-0.755 0-0.739 3.458 0.043 5.674 1.284 1.058 0.592 2.448 1.979 3.088 3.082 1.301 2.241 2.131 5.755 1.36 5.755-0.269 0-0.609-0.889-0.755-1.977z"></path>
</svg>
