<!-- Generated by IcoMoon.io -->
<svg version="1.1" xmlns="http://www.w3.org/2000/svg" width="32" height="32" viewBox="0 0 32 32">
<title>stack</title>
<path d="M2.245 29.429c-2.959-1.433-2.992-7.198-0.104-18.236 1.156-4.417 2.316-8.314 2.579-8.659 0.683-0.897 21.417-0.897 22.516 0 0.423 0.345 1.712 4.242 2.864 8.659 2.934 11.246 2.855 16.848-0.257 18.266-1.6 0.729-26.084 0.703-27.597-0.030zM29.57 27.406c1.303-1.303 0.686-8.719-1.347-16.213l-1.907-7.027h-20.397l-1.907 7.027c-2.034 7.495-2.65 14.911-1.347 16.213 0.857 0.857 26.048 0.857 26.905 0zM11.795 23.608c-0.307-0.203-0.934-1.103-1.393-2-0.772-1.506-1.026-1.631-3.303-1.631-1.357 0-2.62-0.246-2.806-0.548-0.364-0.589 2.635-11.84 3.434-12.88 0.685-0.892 16.095-0.892 16.78 0 0.799 1.040 3.798 12.291 3.434 12.88-0.186 0.301-1.449 0.548-2.806 0.548-2.277 0-2.532 0.125-3.303 1.631-1.152 2.248-1.443 2.369-5.715 2.369-2.071 0-4.016-0.166-4.322-0.369zM20.441 20.353c1.083-2.113 1.52-2.367 4.084-2.377 1.173-0.004 2.133-0.248 2.133-0.543s-0.602-2.779-1.337-5.522l-1.337-4.987h-15.734l-1.337 4.987c-0.735 2.743-1.337 5.227-1.337 5.522s0.96 0.538 2.133 0.543c2.564 0.009 3.001 0.264 4.084 2.377 0.822 1.604 0.895 1.631 4.324 1.631s3.502-0.028 4.324-1.631z"></path>
</svg>
