<!-- Generated by IcoMoon.io -->
<svg version="1.1" xmlns="http://www.w3.org/2000/svg" width="32" height="32" viewBox="0 0 32 32">
<title>star</title>
<path d="M6.176 30.902c-0.904-0.661-0.912-0.896-0.194-5.396l0.751-4.705-3.415-3.586c-4.924-5.17-4.572-6.198 2.453-7.158l4.444-0.607 2.248-4.364c3.099-6.016 3.907-6.016 7.006 0l2.248 4.364 4.444 0.607c7.028 0.96 7.379 1.99 2.441 7.158l-3.426 3.586 0.635 3.514c0.933 5.162 0.873 6.145-0.417 6.835-0.964 0.516-1.67 0.301-5.282-1.614l-4.169-2.209-3.963 2.133c-4.44 2.39-4.49 2.402-5.803 1.442zM11.96 27.070l4.005-2.013 4.068 2.045c2.237 1.125 4.134 1.974 4.215 1.888s-0.194-2.159-0.611-4.605l-0.758-4.448 3.319-3.345c1.826-1.84 3.319-3.483 3.319-3.651s-1.859-0.578-4.132-0.91c-2.272-0.332-4.482-0.792-4.911-1.021s-1.532-2.129-2.452-4.222c-0.92-2.093-1.846-3.805-2.058-3.805s-1.139 1.712-2.058 3.805c-0.92 2.093-2.023 3.993-2.452 4.222s-2.639 0.689-4.911 1.021c-2.272 0.332-4.132 0.742-4.132 0.91s1.493 1.811 3.318 3.65l3.318 3.343-0.594 3.697c-0.327 2.033-0.706 4.092-0.842 4.575-0.336 1.192-0.22 1.162 4.349-1.135z"></path>
</svg>
