<!-- Generated by IcoMoon.io -->
<svg version="1.1" xmlns="http://www.w3.org/2000/svg" width="32" height="32" viewBox="0 0 32 32">
<title>study</title>
<path d="M28.468 29.198c-0.546-0.658-0.535-1.154 0.064-2.886 0.416-1.203 1.043-2.092 1.476-2.092s1.060 0.889 1.476 2.092c0.8 2.314 0.252 3.681-1.476 3.681-0.485 0-1.178-0.357-1.54-0.794zM11.435 24.658c-5.609-1.090-6.526-2.286-6.526-8.519v-4.682l-1.999-0.538c-2.228-0.6-3.259-1.996-2.806-3.799 0.406-1.619 1.004-1.864 8.947-3.678l6.902-1.576 6.902 1.576c7.942 1.813 8.54 2.059 8.947 3.678 0.453 1.804-0.578 3.199-2.806 3.799l-1.999 0.538v4.638c0 5.293-0.543 6.518-3.422 7.721-1.787 0.747-9.778 1.301-12.139 0.842zM23.002 21.665l1.735-1.012 0.145-4.366c0.080-2.401 0.041-4.366-0.086-4.366s-2.169 0.46-4.537 1.023l-4.306 1.023-4.306-1.023c-2.368-0.563-4.401-1.023-4.518-1.023s-0.211 1.892-0.211 4.205c0 4.642 0.172 4.954 3.383 6.149 2.85 1.060 10.463 0.694 12.701-0.611zM22.767 10.446c9.675-2.239 9.649-2.857-0.221-5.128l-6.592-1.517-6.592 1.517c-9.774 2.248-9.852 2.888-0.625 5.083 3.279 0.78 6.342 1.441 6.807 1.469s3.715-0.613 7.223-1.425zM29.235 22.341c-0.149-0.389-0.206-2.836-0.126-5.438 0.117-3.806 0.293-4.731 0.898-4.731 0.621 0 0.753 0.916 0.753 5.229 0 3.736-0.179 5.288-0.627 5.438-0.345 0.115-0.749-0.109-0.898-0.498z"></path>
</svg>
