<!-- Generated by IcoMoon.io -->
<svg version="1.1" xmlns="http://www.w3.org/2000/svg" width="32" height="32" viewBox="0 0 32 32">
<title>t-shirt</title>
<path d="M5.588 29.112c-0.636-0.636-0.789-2.047-0.789-7.263 0-5.050-0.141-6.42-0.642-6.228-0.353 0.135-1.005-0.041-1.449-0.392-1.017-0.805-3.060-6.991-2.656-8.043 0.166-0.433 1.622-1.823 3.235-3.091l2.933-2.304h19.060l3.009 2.262c1.655 1.244 3.149 2.628 3.321 3.075s-0.2 2.406-0.826 4.354c-0.934 2.905-1.386 3.634-2.518 4.062l-1.38 0.522v6.129c0 4.902-0.158 6.286-0.789 6.917-1.173 1.173-19.335 1.173-20.509 0zM24.878 20.113c0-4.279 0.121-7.78 0.269-7.78s0.804 0.351 1.459 0.78c0.655 0.429 1.295 0.599 1.421 0.376 0.454-0.795 1.969-5.742 1.796-5.864-0.097-0.069-1.216-0.958-2.487-1.975-2.907-2.328-5.724-2.554-7.663-0.616-2.282 2.282-5.38 2.282-7.662 0-1.938-1.938-4.756-1.712-7.663 0.616-1.271 1.018-2.39 1.907-2.487 1.975-0.173 0.123 1.342 5.070 1.796 5.864 0.127 0.222 0.766 0.053 1.421-0.376s1.312-0.78 1.459-0.78c0.148 0 0.269 3.501 0.269 7.78v7.78h18.071zM18.478 5.108c1.454-1.103 1.040-1.309-2.635-1.309-1.933 0-3.514 0.144-3.514 0.321 0 1.482 4.538 2.211 6.149 0.988z"></path>
</svg>
