<!-- Generated by IcoMoon.io -->
<svg version="1.1" xmlns="http://www.w3.org/2000/svg" width="32" height="32" viewBox="0 0 32 32">
<title>tag</title>
<path d="M2.191 27.493c-1.875-0.908-2.191-2.558-2.191-11.46 0-9.058 0.306-10.564 2.338-11.49 1.613-0.735 20.772-0.756 22.377-0.024 0.644 0.293 2.329 2.383 3.746 4.643 3.685 5.881 3.957 6.581 3.201 8.251-1.449 3.199-5.865 9.641-6.946 10.133-1.532 0.698-21.068 0.651-22.525-0.054zM26.433 22.611c1.155-1.766 2.508-3.968 3.007-4.894 1.044-1.938 0.937-2.232-3.007-8.261l-2.1-3.211-10.471-0.136c-7.3-0.095-10.68 0.038-11.162 0.438-0.939 0.779-1.011 18.001-0.079 18.933 0.451 0.451 3.379 0.577 11.162 0.477l10.55-0.135zM21.082 18.041c-0.552-0.552-1.004-1.456-1.004-2.008s0.452-1.456 1.004-2.008c0.552-0.552 1.456-1.004 2.008-1.004 1.293 0 3.012 1.719 3.012 3.012 0 0.552-0.452 1.456-1.004 2.008s-1.456 1.004-2.008 1.004c-0.552 0-1.456-0.452-2.008-1.004zM24.576 17.312c1.333-1.607-0.625-4.075-2.364-2.979-1.115 0.702-1.388 2.039-0.607 2.979 0.775 0.934 2.196 0.934 2.972 0z"></path>
</svg>
