<!-- Generated by IcoMoon.io -->
<svg version="1.1" xmlns="http://www.w3.org/2000/svg" width="28" height="32" viewBox="0 0 28 32">
<title>trash</title>
<path d="M4.185 31.45c-1.874-0.907-2.182-2.542-2.182-11.578 0-7.997-0.072-8.677-1-9.472-1.337-1.145-1.337-4.029 0-5.366 0.667-0.667 1.667-1 3-1 1.667 0 2-0.167 2-1 0-0.55 0.45-1.45 1-2 0.889-0.889 1.667-1 7-1s6.111 0.111 7 1c0.55 0.55 1 1.45 1 2 0 0.833 0.333 1 2 1 1.333 0 2.333 0.333 3 1 1.337 1.337 1.337 4.222 0 5.366-0.928 0.795-1 1.475-1 9.472 0 9.192-0.299 10.682-2.329 11.607-1.559 0.711-18.012 0.685-19.489-0.030zM23.402 29.435c0.422-0.422 0.6-3.244 0.6-9.5v-8.9h-20v8.9c0 6.256 0.178 9.078 0.6 9.5 0.844 0.844 17.956 0.844 18.8 0zM6.234 27.417c-0.144-0.375-0.199-3.708-0.122-7.407l0.14-6.725h3.5v14.5l-1.628 0.157c-1.033 0.1-1.724-0.092-1.89-0.525zM9.002 20.535c0-6.167-0.051-6.5-1-6.5s-1 0.333-1 6.5c0 6.167 0.051 6.5 1 6.5s1-0.333 1-6.5zM12.234 27.417c-0.144-0.375-0.199-3.708-0.122-7.407l0.14-6.725h3.5v14.5l-1.628 0.157c-1.033 0.1-1.724-0.092-1.89-0.525zM15.002 20.535c0-6.167-0.051-6.5-1-6.5s-1 0.333-1 6.5c0 6.167 0.051 6.5 1 6.5s1-0.333 1-6.5zM18.234 27.417c-0.144-0.375-0.199-3.708-0.122-7.407l0.14-6.725h3.5v14.5l-1.628 0.157c-1.033 0.1-1.724-0.092-1.89-0.525zM21.003 20.535c0-6.167-0.051-6.5-1-6.5s-1 0.333-1 6.5c0 6.167 0.051 6.5 1 6.5s1-0.333 1-6.5zM25.911 7.66l-0.158-1.375h-23.5l-0.316 2.75h24.133zM19.907 3.16c-0.149-0.773-0.839-0.875-5.905-0.875s-5.756 0.102-5.905 0.875c-0.153 0.795 0.39 0.875 5.905 0.875s6.058-0.080 5.905-0.875z"></path>
</svg>
