<!-- Generated by IcoMoon.io -->
<svg version="1.1" xmlns="http://www.w3.org/2000/svg" width="32" height="32" viewBox="0 0 32 32">
<title>truck</title>
<path d="M9.176 28.537c-0.615-0.297-1.252-0.959-1.414-1.472-0.181-0.572-0.768-0.932-1.517-0.932-1.878 0-3.229-1.68-3.229-4.016 0-1.104-0.226-2.008-0.502-2.008s-0.954-0.452-1.506-1.004c-0.901-0.901-1.004-1.673-1.004-7.529 0-8.956-0.523-8.533 10.541-8.533 7.864 0 8.612 0.079 9.537 1.004 0.558 0.558 1.004 1.673 1.004 2.51 0 1.464 0.066 1.506 2.414 1.506 2.942 0 3.382 0.332 6.311 4.763 2.256 3.414 2.319 3.613 2.319 7.404 0 4.319-0.867 5.903-3.229 5.903-0.757 0-1.336 0.361-1.523 0.95-0.476 1.499-2.961 2.316-4.769 1.567-0.819-0.339-1.625-1.044-1.791-1.567-0.251-0.79-0.798-0.95-3.246-0.95-2.423 0-2.996 0.164-3.239 0.928-0.293 0.924-2.288 2.115-3.436 2.050-0.332-0.019-1.107-0.277-1.722-0.574zM12.533 26.409c1.333-1.607-0.625-4.075-2.364-2.979-1.115 0.702-1.388 2.039-0.607 2.98 0.775 0.934 2.196 0.934 2.972 0zM25.584 26.409c0.78-0.94 0.508-2.277-0.607-2.979-1.739-1.095-3.698 1.373-2.364 2.98 0.775 0.934 2.196 0.934 2.972 0zM7.767 23.176c0.476-1.499 2.961-2.316 4.769-1.567 0.819 0.339 1.625 1.044 1.791 1.567 0.251 0.79 0.798 0.95 3.246 0.95s2.995-0.16 3.246-0.95c0.166-0.522 0.972-1.228 1.791-1.567 1.822-0.755 4.294 0.071 4.778 1.596 0.207 0.651 0.675 0.927 1.397 0.824 0.991-0.141 1.097-0.486 1.206-3.919 0.118-3.705 0.086-3.812-2.026-6.776-2.050-2.878-2.251-3.019-4.512-3.165l-2.366-0.153v4.043c0 5.953-0.146 6.051-9.035 6.051h-7.027v1.673c0 0.92 0.151 1.824 0.335 2.008 0.676 0.676 2.116 0.308 2.409-0.615zM22.31 18.452c-0.149-0.389-0.203-2.151-0.12-3.917 0.135-2.869 0.269-3.227 1.255-3.367 0.857-0.122 1.511 0.456 2.927 2.59 1.122 1.69 1.76 3.199 1.657 3.922-0.147 1.038-0.473 1.193-2.807 1.327-1.915 0.11-2.715-0.042-2.912-0.555zM27.11 17.314c0-0.972-2.881-5.236-3.538-5.236-0.263 0-0.478 1.355-0.478 3.012v3.012h2.008c1.49 0 2.008-0.203 2.008-0.788zM18.827 11.577v-6.274h-16.565l-0.143 5.742c-0.079 3.158-0.027 6.044 0.115 6.413 0.203 0.53 1.976 0.642 8.425 0.533l8.168-0.138z"></path>
</svg>
