<!-- Generated by IcoMoon.io -->
<svg version="1.1" xmlns="http://www.w3.org/2000/svg" width="32" height="32" viewBox="0 0 32 32">
<title>tv</title>
<path d="M11.113 28.305c-0.552-0.137-1.456-0.446-2.008-0.687s-2.339-0.555-3.97-0.699c-1.631-0.144-3.26-0.557-3.621-0.917s-0.925-2.858-1.256-5.55c-0.672-5.474 0.041-14.122 1.267-15.349 1.481-1.483 22.214-1.981 27.221-0.654 2.145 0.569 2.639 2.646 2.639 11.109 0 10.522-0.444 11.373-5.992 11.495-1.256 0.028-2.544 0.31-2.861 0.627-0.593 0.593-9.572 1.084-11.42 0.625zM25.504 25.274c3.98-0.376 3.865-0.167 4.266-7.708 0.243-4.557-0.321-10.694-1.049-11.422-0.448-0.448-16.311-0.749-20.982-0.398l-4.88 0.367-0.391 1.837c-0.507 2.385-0.505 12.844 0.004 15.237 0.379 1.783 0.486 1.863 2.761 2.043 4.287 0.339 16.86 0.367 20.271 0.045zM8.352 23.133c-3.123-0.446-3.365-0.681-4.054-3.944-0.67-3.173-0.053-9.764 1.014-10.831 0.658-0.658 13.954-0.827 16.17-0.205 1.189 0.334 1.401 0.749 1.949 3.815 0.619 3.464 0.099 9.193-0.927 10.22-1.125 1.125-9.143 1.661-14.152 0.946zM19.571 22.267c2.148-0.294 2.362-0.456 2.828-2.133 0.65-2.339 0.646-6.827-0.008-9.182-0.556-2.003-0.763-2.095-6.007-2.652-3.176-0.338-9.911 0.404-10.684 1.177-0.777 0.777-1.057 8.024-0.403 10.442 0.498 1.843 0.768 2.127 2.189 2.304 2.813 0.35 9.671 0.375 12.087 0.044zM7.85 14.838c0-0.396 0.22-1.3 0.49-2.008 0.439-1.154 0.76-1.288 3.095-1.288 3.014 0 2.895 0.557-0.206 0.971-1.86 0.248-2.144 0.455-2.283 1.664-0.162 1.407-1.096 1.97-1.096 0.66zM23.913 22.084c0-0.276 0.904-0.502 2.008-0.502s2.008 0.226 2.008 0.502c0 0.276-0.904 0.502-2.008 0.502s-2.008-0.226-2.008-0.502zM24.917 19.072c0-0.276 0.904-0.502 2.008-0.502s2.008 0.226 2.008 0.502c0 0.276-0.904 0.502-2.008 0.502s-2.008-0.226-2.008-0.502zM24.917 16.060c0-0.276 0.904-0.502 2.008-0.502s2.008 0.226 2.008 0.502c0 0.276-0.904 0.502-2.008 0.502s-2.008-0.226-2.008-0.502zM25.398 10.765c-0.533-0.643-0.5-0.923 0.19-1.613 0.779-0.779 0.892-0.779 1.671 0 0.69 0.69 0.723 0.971 0.19 1.613-0.355 0.428-0.816 0.778-1.025 0.778s-0.67-0.35-1.025-0.778zM26.924 10.037c0-0.276-0.226-0.502-0.502-0.502s-0.502 0.226-0.502 0.502c0 0.276 0.226 0.502 0.502 0.502s0.502-0.226 0.502-0.502z"></path>
</svg>
