<!-- Generated by IcoMoon.io -->
<svg version="1.1" xmlns="http://www.w3.org/2000/svg" width="32" height="32" viewBox="0 0 32 32">
<title>user</title>
<path d="M0.582 31.186c-0.448-0.448-0.689-1.141-0.536-1.541s0.279-0.83 0.279-0.957c0-0.422 6.225-3.183 7.875-3.494 0.894-0.168 1.625-0.409 1.625-0.536s-0.545-1.17-1.211-2.319c-3.015-5.202-3.463-11.175-1.228-16.37 1.271-2.954 3.227-4.739 6.018-5.491 4.389-1.182 8.363 0.678 10.513 4.919 2.576 5.082 2.358 10.745-0.634 16.433-0.802 1.524-1.457 2.835-1.457 2.914s0.731 0.281 1.625 0.449c2.466 0.464 7.682 3.081 8.050 4.040 0.431 1.123 0.441 1.079-0.46 1.98-0.678 0.678-2.764 0.786-15.214 0.786-12.666 0-14.528-0.099-15.243-0.814zM28.627 29.251c-1.506-1.14-7.282-2.89-9.253-2.804-2.289 0.1-4.809 0.1-7.098 0-1.971-0.087-7.747 1.664-9.253 2.804-0.831 0.629 0.748 0.718 12.802 0.718s13.633-0.089 12.802-0.718zM19.038 24.466c5.582-4.901 6.377-15.775 1.498-20.504-1.605-1.556-2.036-1.712-4.711-1.712-2.673 0-3.107 0.157-4.702 1.703-4.318 4.186-4.384 13.079-0.137 18.646 2.854 3.741 5.277 4.303 8.052 1.866z"></path>
</svg>
