<!-- Generated by IcoMoon.io -->
<svg version="1.1" xmlns="http://www.w3.org/2000/svg" width="32" height="32" viewBox="0 0 32 32">
<title>video</title>
<path d="M1.004 25.976c-0.93-0.93-1.004-1.673-1.004-10.039s0.074-9.11 1.004-10.039c0.94-0.94 1.673-1.004 11.545-1.004s10.605 0.064 11.545 1.004c0.552 0.552 1.004 1.479 1.004 2.060 0 0.979 0.13 0.942 1.774-0.502 1.969-1.729 3.279-1.954 4.464-0.769 0.656 0.656 0.789 2.244 0.789 9.437 0 6.057-0.18 8.829-0.602 9.25-1.031 1.031-2.803 0.667-4.651-0.956-1.644-1.444-1.774-1.481-1.774-0.502 0 0.581-0.452 1.508-1.004 2.060-0.94 0.94-1.673 1.004-11.545 1.004s-10.605-0.064-11.545-1.004zM22.839 15.937v-8.784h-20.58l-0.138 8.263c-0.076 4.545-0.025 8.559 0.114 8.92 0.199 0.518 2.408 0.628 10.429 0.521l10.176-0.136zM30.118 15.937c0-5.969-0.157-8.031-0.61-8.031-0.336 0-1.691 1.064-3.012 2.365-2.379 2.343-2.402 2.396-2.402 5.63 0 3.216 0.035 3.3 2.365 5.666 1.301 1.321 2.656 2.402 3.012 2.402 0.5 0 0.646-1.816 0.646-8.031z"></path>
</svg>
