<!-- Generated by IcoMoon.io -->
<svg version="1.1" xmlns="http://www.w3.org/2000/svg" width="32" height="32" viewBox="0 0 32 32">
<title>vinyl</title>
<path d="M11.015 31.247c-5.432-1.941-8.893-5.591-10.48-11.052-1.484-5.104 0.2-11.383 4.097-15.281 6.079-6.079 16.387-6.079 22.467 0s6.079 16.387 0 22.467c-4.067 4.067-10.915 5.713-16.083 3.866zM20.646 29.309c3.304-1.126 7.254-5.076 8.38-8.38 1.837-5.393 0.643-10.542-3.379-14.564-5.685-5.685-13.88-5.685-19.565 0-5.689 5.689-5.686 13.88 0.009 19.575 4 4 9.184 5.2 14.555 3.37zM19.865 26.921c0-0.124 0.965-0.89 2.145-1.702s2.581-2.285 3.114-3.274c0.533-0.989 1.142-1.798 1.355-1.798 1.565 0-2.143 4.952-4.714 6.295-1.409 0.736-1.9 0.86-1.9 0.479zM19.368 24.772c0.002-0.206 0.679-0.759 1.505-1.229s1.977-1.661 2.559-2.646c1.341-2.272 1.959-1.803 0.701 0.532-1.101 2.045-4.776 4.623-4.765 3.343zM20.746 20.897c1.238-1.238 2.339-2.25 2.447-2.25 0.528 0-1.462 3.037-2.437 3.72-2.208 1.547-2.214 0.734-0.010-1.47zM13.615 21.591c-2.918-1.694-4.303-4.415-3.513-6.903 0.962-3.031 4.531-5.158 7.222-4.304 4.631 1.47 5.852 6.917 2.3 10.255-1.357 1.275-4.575 1.785-6.009 0.952zM18.637 18.92c2.48-2.48 0.723-6.773-2.773-6.773-2.056 0-4 1.944-4 4s1.944 4 4 4c0.974 0 1.999-0.454 2.773-1.227zM14.385 17.421c-0.777-0.937-0.506-2.268 0.605-2.968 1.732-1.091 3.683 1.367 2.355 2.968-0.772 0.931-2.188 0.931-2.96 0zM16.642 16.603c0.515-0.834-0.644-1.79-1.333-1.1-0.577 0.577-0.216 1.644 0.556 1.644 0.243 0 0.592-0.245 0.777-0.544zM9.099 12.177c0.786-1.521 2.56-3.030 3.561-3.030 0.315 0-0.44 1.012-1.677 2.25s-2.339 2.25-2.447 2.25c-0.108 0 0.145-0.661 0.563-1.47zM6.894 12.724c-0.083-1.906 4.41-6.352 5.372-5.316 0.192 0.207 0.011 0.493-0.401 0.637-0.869 0.304-3.476 2.921-4.346 4.363-0.36 0.597-0.607 0.722-0.625 0.315zM4.865 11.872c0-1.428 3.152-5.037 5.418-6.205 2.031-1.046 1.764-0.148-0.353 1.188-1.116 0.705-2.544 2.182-3.172 3.282-1 1.752-1.893 2.569-1.893 1.734z"></path>
</svg>
