<!-- Generated by IcoMoon.io -->
<svg version="1.1" xmlns="http://www.w3.org/2000/svg" width="32" height="32" viewBox="0 0 32 32">
<title>wallet</title>
<path d="M2.704 30.541c-2.412-1.471-2.701-3.070-2.701-14.953 0-15.844-0.658-15.21 15.787-15.21 14.025 0 13.327-0.369 13.327 7.048 0 4.367 0.136 5.186 1.016 6.131 2.416 2.593 2.416 7.189 0 9.782-0.559 0.6-1.016 1.676-1.016 2.391 0 1.927-1.326 4.144-2.995 5.007-1.175 0.607-3.533 0.761-11.662 0.76-9.129-0.002-10.353-0.101-11.755-0.957zM26.106 28.488c0.552-0.552 1.004-1.662 1.004-2.465v-1.461l-5.511-0.17c-5.237-0.161-5.58-0.239-6.891-1.55-1.044-1.045-1.379-1.868-1.379-3.388s0.335-2.343 1.379-3.388c1.311-1.313 1.651-1.389 6.92-1.551l5.54-0.171-0.309-2.67-11.545-0.251c-6.35-0.138-11.94-0.445-12.424-0.681-0.819-0.401-0.878 0.15-0.878 8.157 0 11.498-1.069 10.595 12.549 10.595 9.872 0 10.605-0.064 11.545-1.004zM29.34 21.349c0.843-1.204 1.034-4.234 0.336-5.336-0.331-0.522-0.671-0.551-1.465-0.126-0.569 0.305-3.347 0.554-6.173 0.554-5.662 0-6.974 0.551-6.974 2.925 0 2.652 1.094 3.099 7.579 3.099 5.546 0 5.966-0.070 6.699-1.116zM16.855 20.672c-0.434-0.434-0.789-0.982-0.789-1.219 0-0.558 1.45-2.008 2.008-2.008s2.008 1.45 2.008 2.008c0 0.558-1.45 2.008-2.008 2.008-0.237 0-0.785-0.355-1.219-0.789zM25.102 8.912c0-0.319-3.848-0.502-10.541-0.502s-10.541 0.183-10.541 0.502c0 0.319 3.848 0.502 10.541 0.502s10.541-0.183 10.541-0.502zM27.007 6.025l-0.148-3.388-11.41-0.135c-10.872-0.129-11.458-0.087-12.424 0.878-1.045 1.045-1.295 2.754-0.637 4.361 0.264 0.646 0.451 0.172 0.627-1.59l0.251-2.51h22.588l0.151 2.886c0.083 1.587 0.375 2.886 0.65 2.886 0.297 0 0.44-1.374 0.351-3.388zM25.102 6.904c0-0.319-3.848-0.502-10.541-0.502s-10.541 0.183-10.541 0.502c0 0.319 3.848 0.502 10.541 0.502s10.541-0.183 10.541-0.502zM25.102 4.896c0-0.319-3.848-0.502-10.541-0.502s-10.541 0.183-10.541 0.502c0 0.319 3.848 0.502 10.541 0.502s10.541-0.183 10.541-0.502z"></path>
</svg>
