<!-- Generated by IcoMoon.io -->
<svg version="1.1" xmlns="http://www.w3.org/2000/svg" width="32" height="32" viewBox="0 0 32 32">
<title>world</title>
<path d="M10.883 31.212c-11.048-3.949-14.448-17.186-6.635-25.834 6.065-6.714 17.184-6.714 23.25 0 2.978 3.296 4.096 6.232 4.096 10.757s-1.118 7.461-4.096 10.757c-4.023 4.453-11.096 6.291-16.615 4.319zM11.693 27.317l-1.657-2.351-3.148 1.628 1.464 1.168c1.293 1.031 4.411 2.334 4.84 2.022 0.087-0.063-0.587-1.173-1.499-2.466zM15.357 26.907v-3.164l-1.87 0.304c-1.029 0.167-1.989 0.422-2.134 0.568-0.42 0.42 3.122 5.458 3.837 5.458 0.092 0 0.168-1.424 0.168-3.164zM19.561 26.594c0.591-0.956 0.961-1.852 0.821-1.991s-1.095-0.39-2.123-0.556l-1.87-0.304v3.244c0 3.229 0.005 3.24 1.049 2.295 0.577-0.522 1.532-1.732 2.123-2.688zM23.415 27.744l1.443-1.15-3.148-1.628-1.628 2.31c-0.895 1.27-1.628 2.397-1.628 2.504 0 0.498 3.675-1.010 4.962-2.036zM7.886 25.058c1.47-0.701 1.792-1.103 1.551-1.935-0.167-0.578-0.562-2.27-0.877-3.76l-0.573-2.71h-3.026c-3.375 0-3.578 0.306-2.422 3.665 0.557 1.618 2.921 5.625 3.318 5.625 0.095 0 1.007-0.398 2.027-0.885zM27.329 24.007c1.399-2.13 2.479-4.918 2.479-6.4 0-0.821-0.425-0.955-3.026-0.955h-3.026l-0.573 2.71c-0.315 1.49-0.71 3.183-0.877 3.762-0.238 0.821 0.071 1.239 1.405 1.902 2.295 1.141 2.176 1.175 3.617-1.020zM15.357 19.662v-3.010h-6.334l0.306 2.229c0.168 1.226 0.531 2.824 0.808 3.55 0.484 1.272 0.589 1.3 2.861 0.78l2.359-0.54zM22.003 21.077c1.076-4.275 0.991-4.425-2.517-4.425h-3.097v6.047l2.194 0.496c1.206 0.273 2.339 0.426 2.517 0.34s0.584-1.192 0.903-2.458zM8.576 12.695c0.77-3.836 0.853-3.526-1.278-4.784-1.779-1.050-1.898-1.058-2.564-0.18-1.178 1.555-2.339 4.239-2.643 6.108l-0.289 1.78h6.186zM15.357 13.096c0-2.485-0.028-2.529-1.843-2.869-1.014-0.19-2.159-0.467-2.545-0.615-0.733-0.281-1.797 2.58-1.803 4.846-0.003 1.076 0.226 1.161 3.094 1.161h3.097zM22.579 14.458c-0.006-2.266-1.070-5.127-1.803-4.846-0.386 0.148-1.531 0.425-2.545 0.615-1.815 0.34-1.843 0.384-1.843 2.869v2.523h3.097c2.868 0 3.097-0.086 3.094-1.161zM29.654 13.84c-0.303-1.87-1.465-4.554-2.643-6.108-0.665-0.878-0.784-0.87-2.564 0.18-2.131 1.258-2.049 0.948-1.278 4.784l0.587 2.925h6.186zM15.357 5.75c0-3.373-0.071-3.618-0.862-2.968-0.925 0.76-3.783 5.048-3.783 5.677 0 0.394 1.482 0.776 3.484 0.897 1.102 0.067 1.161-0.117 1.161-3.606zM20.948 8.652c0.33-0.33-2.265-4.535-3.474-5.629l-1.086-0.983v7.518l2.174-0.348c1.196-0.191 2.269-0.443 2.385-0.559zM11.479 5.41c0.848-1.339 1.62-2.603 1.716-2.809 0.301-0.646-3.171 0.75-5.234 2.106l-1.977 1.298 1.202 0.925c1.832 1.41 2.613 1.133 4.293-1.52zM24.559 6.93l1.202-0.925-1.977-1.298c-2.064-1.355-5.536-2.752-5.234-2.106 0.942 2.021 3.419 5.245 4.032 5.249 0.426 0.003 1.315-0.411 1.977-0.92z"></path>
</svg>
